%TF.GenerationSoftware,Altium Limited,Altium Designer,21.0.4 (50)*%
G04 Layer_Color=2752767*
%FSLAX25Y25*%
%MOIN*%
%TF.SameCoordinates,7C4F9ACF-F1D8-4562-922E-26F05696B097*%
%TF.FilePolarity,Positive*%
%TF.FileFunction,Drawing*%
%TF.Part,Single*%
G01*
G75*
%TA.AperFunction,NonConductor*%
%ADD107C,0.00500*%
%ADD108C,0.00667*%
D107*
X220500Y102843D02*
Y106843D01*
X224500D01*
Y102843D01*
X220500D01*
Y93000D02*
Y97000D01*
X224500D01*
Y93000D01*
X220500D01*
X226378Y68866D02*
X224378Y72866D01*
X228378D01*
X226378Y68866D01*
X43000Y83000D02*
Y87000D01*
X47000D01*
Y83000D01*
X43000D01*
X52843D02*
Y87000D01*
X56843D01*
Y83000D01*
X52843D01*
X123000Y60500D02*
Y64500D01*
X127000D01*
Y60500D01*
X123000D01*
X103000D02*
Y64500D01*
X107000D01*
Y60500D01*
X103000D01*
X113000D02*
Y64500D01*
X117000D01*
Y60500D01*
X113000D01*
X93000D02*
Y64500D01*
X97000D01*
Y60500D01*
X93000D01*
X83000D02*
Y64500D01*
X87000D01*
Y60500D01*
X83000D01*
X14732Y145973D02*
Y149973D01*
X18732D01*
Y145973D01*
X14732D01*
X14732Y155815D02*
Y159815D01*
X18732D01*
Y155815D01*
X14732D01*
X218000Y18000D02*
Y22000D01*
X222000D01*
Y18000D01*
X218000D01*
X118000Y43000D02*
Y47000D01*
X122000D01*
Y43000D01*
X118000D01*
Y18000D02*
Y22000D01*
X122000D01*
Y18000D01*
X118000D01*
X168000D02*
Y22000D01*
X172000D01*
Y18000D01*
X168000D01*
X97527Y43000D02*
Y47000D01*
X101527D01*
Y43000D01*
X97527D01*
X68000Y18000D02*
Y22000D01*
X72000D01*
Y18000D01*
X68000D01*
X10000Y91878D02*
X11000Y92878D01*
X12000D01*
X11000Y93878D01*
X12000Y94878D01*
X11000D01*
X10000Y95878D01*
X9000Y94878D01*
X8000D01*
X9000Y93878D01*
X8000Y92878D01*
X9000D01*
X10000Y91878D01*
X14732Y175500D02*
Y179500D01*
X18732D01*
Y175500D01*
X14732D01*
Y165657D02*
Y169657D01*
X18732D01*
Y165657D01*
X14732D01*
X15748Y68866D02*
X13748Y72866D01*
X17748D01*
X15748Y68866D01*
X216535Y468472D02*
X214535Y472472D01*
X218535D01*
X216535Y468472D01*
X27842Y18000D02*
Y22000D01*
X31842D01*
Y18000D01*
X27842D01*
X37685D02*
Y22000D01*
X41685D01*
Y18000D01*
X37685D01*
X47527D02*
Y22000D01*
X51527D01*
Y18000D01*
X47527D01*
X18000Y18000D02*
Y22000D01*
X22000D01*
Y18000D01*
X18000D01*
X77842Y43000D02*
Y47000D01*
X81842D01*
Y43000D01*
X77842D01*
X87685D02*
Y47000D01*
X91685D01*
Y43000D01*
X87685D01*
X68000Y43000D02*
Y47000D01*
X72000D01*
Y43000D01*
X68000D01*
X227843Y18000D02*
Y22000D01*
X231843D01*
Y18000D01*
X227843D01*
X237685D02*
Y22000D01*
X241685D01*
Y18000D01*
X237685D01*
X218000Y43000D02*
Y47000D01*
X222000D01*
Y43000D01*
X218000D01*
X227843D02*
Y47000D01*
X231843D01*
Y43000D01*
X227843D01*
X237685D02*
Y47000D01*
X241685D01*
Y43000D01*
X237685D01*
X267843D02*
Y47000D01*
X271843D01*
Y43000D01*
X267843D01*
X258000D02*
Y47000D01*
X262000D01*
Y43000D01*
X258000D01*
X267843Y18000D02*
Y22000D01*
X271843D01*
Y18000D01*
X267843D01*
X258000D02*
Y22000D01*
X262000D01*
Y18000D01*
X258000D01*
X147527Y43000D02*
Y47000D01*
X151527D01*
Y43000D01*
X147527D01*
X137685D02*
Y47000D01*
X141685D01*
Y43000D01*
X137685D01*
X127842D02*
Y47000D01*
X131842D01*
Y43000D01*
X127842D01*
X147527Y18000D02*
Y22000D01*
X151527D01*
Y18000D01*
X147527D01*
X137685D02*
Y22000D01*
X141685D01*
Y18000D01*
X137685D01*
X127842D02*
Y22000D01*
X131842D01*
Y18000D01*
X127842D01*
X197527D02*
Y22000D01*
X201527D01*
Y18000D01*
X197527D01*
X187685D02*
Y22000D01*
X191685D01*
Y18000D01*
X187685D01*
X177842D02*
Y22000D01*
X181842D01*
Y18000D01*
X177842D01*
X18000Y43000D02*
Y47000D01*
X22000D01*
Y43000D01*
X18000D01*
X47527Y43000D02*
Y47000D01*
X51527D01*
Y43000D01*
X47527D01*
X37685D02*
Y47000D01*
X41685D01*
Y43000D01*
X37685D01*
X27842D02*
Y47000D01*
X31842D01*
Y43000D01*
X27842D01*
X168000Y43000D02*
Y47000D01*
X172000D01*
Y43000D01*
X168000D01*
X197527Y43000D02*
Y47000D01*
X201527D01*
Y43000D01*
X197527D01*
X187685D02*
Y47000D01*
X191685D01*
Y43000D01*
X187685D01*
X177842D02*
Y47000D01*
X181842D01*
Y43000D01*
X177842D01*
X97527Y18000D02*
Y22000D01*
X101527D01*
Y18000D01*
X97527D01*
X87685D02*
Y22000D01*
X91685D01*
Y18000D01*
X87685D01*
X77842D02*
Y22000D01*
X81842D01*
Y18000D01*
X77842D01*
X10000Y115500D02*
X11000Y116500D01*
X12000D01*
X11000Y117500D01*
X12000Y118500D01*
X11000D01*
X10000Y119500D01*
X9000Y118500D01*
X8000D01*
X9000Y117500D01*
X8000Y116500D01*
X9000D01*
X10000Y115500D01*
X25748D02*
X26748Y116500D01*
X27748D01*
X26748Y117500D01*
X27748Y118500D01*
X26748D01*
X25748Y119500D01*
X24748Y118500D01*
X23748D01*
X24748Y117500D01*
X23748Y116500D01*
X24748D01*
X25748Y115500D01*
Y91878D02*
X26748Y92878D01*
X27748D01*
X26748Y93878D01*
X27748Y94878D01*
X26748D01*
X25748Y95878D01*
X24748Y94878D01*
X23748D01*
X24748Y93878D01*
X23748Y92878D01*
X24748D01*
X25748Y91878D01*
X76772Y468472D02*
X74772Y472472D01*
X78772D01*
X76772Y468472D01*
X248000Y353157D02*
Y357157D01*
X252000D01*
Y353157D01*
X248000D01*
Y363000D02*
Y367000D01*
X252000D01*
Y363000D01*
X248000D01*
Y343315D02*
Y347315D01*
X252000D01*
Y343315D01*
X248000D01*
Y333472D02*
Y337472D01*
X252000D01*
Y333472D01*
X248000D01*
Y403157D02*
Y407157D01*
X252000D01*
Y403157D01*
X248000D01*
Y413000D02*
Y417000D01*
X252000D01*
Y413000D01*
X248000D01*
Y393315D02*
Y397315D01*
X252000D01*
Y393315D01*
X248000D01*
Y383472D02*
Y387472D01*
X252000D01*
Y383472D01*
X248000D01*
X38000Y363000D02*
Y367000D01*
X42000D01*
Y363000D01*
X38000D01*
Y353157D02*
Y357157D01*
X42000D01*
Y353157D01*
X38000D01*
Y333472D02*
Y337472D01*
X42000D01*
Y333472D01*
X38000D01*
Y343315D02*
Y347315D01*
X42000D01*
Y343315D01*
X38000D01*
Y413000D02*
Y417000D01*
X42000D01*
Y413000D01*
X38000D01*
Y403157D02*
Y407157D01*
X42000D01*
Y403157D01*
X38000D01*
Y383472D02*
Y387472D01*
X42000D01*
Y383472D01*
X38000D01*
Y393315D02*
Y397315D01*
X42000D01*
Y393315D01*
X38000D01*
Y513000D02*
Y517000D01*
X42000D01*
Y513000D01*
X38000D01*
Y503157D02*
Y507157D01*
X42000D01*
Y503157D01*
X38000D01*
Y483472D02*
Y487472D01*
X42000D01*
Y483472D01*
X38000D01*
Y493315D02*
Y497315D01*
X42000D01*
Y493315D01*
X38000D01*
Y463000D02*
Y467000D01*
X42000D01*
Y463000D01*
X38000D01*
Y453157D02*
Y457157D01*
X42000D01*
Y453157D01*
X38000D01*
Y433472D02*
Y437472D01*
X42000D01*
Y433472D01*
X38000D01*
Y443315D02*
Y447315D01*
X42000D01*
Y443315D01*
X38000D01*
X248000Y453157D02*
Y457157D01*
X252000D01*
Y453157D01*
X248000D01*
Y463000D02*
Y467000D01*
X252000D01*
Y463000D01*
X248000D01*
Y443315D02*
Y447315D01*
X252000D01*
Y443315D01*
X248000D01*
Y433472D02*
Y437472D01*
X252000D01*
Y433472D01*
X248000D01*
Y503157D02*
Y507157D01*
X252000D01*
Y503157D01*
X248000D01*
Y513000D02*
Y517000D01*
X252000D01*
Y513000D01*
X248000D01*
Y493315D02*
Y497315D01*
X252000D01*
Y493315D01*
X248000D01*
Y483472D02*
Y487472D01*
X252000D01*
Y483472D01*
X248000D01*
X105500Y158500D02*
X106500Y160500D01*
X105500Y162500D01*
X107500Y161500D01*
X109500Y162500D01*
X108500Y160500D01*
X109500Y158500D01*
X107500Y159500D01*
X105500Y158500D01*
X129200Y152592D02*
X130200Y154592D01*
X129200Y156592D01*
X131200Y155592D01*
X133200Y156592D01*
X132200Y154592D01*
X133200Y152592D01*
X131200Y153592D01*
X129200Y152592D01*
X131562Y155182D02*
X132562Y157182D01*
X131562Y159182D01*
X133562Y158182D01*
X135562Y159182D01*
X134562Y157182D01*
X135562Y155182D01*
X133562Y156182D01*
X131562Y155182D01*
X111800Y48300D02*
X112800Y50300D01*
X111800Y52300D01*
X113800Y51300D01*
X115800Y52300D01*
X114800Y50300D01*
X115800Y48300D01*
X113800Y49300D01*
X111800Y48300D01*
X73800Y106400D02*
X74800Y108400D01*
X73800Y110400D01*
X75800Y109400D01*
X77800Y110400D01*
X76800Y108400D01*
X77800Y106400D01*
X75800Y107400D01*
X73800Y106400D01*
X156700Y141200D02*
X157700Y143200D01*
X156700Y145200D01*
X158700Y144200D01*
X160700Y145200D01*
X159700Y143200D01*
X160700Y141200D01*
X158700Y142200D01*
X156700Y141200D01*
X54500Y53700D02*
X55500Y55700D01*
X54500Y57700D01*
X56500Y56700D01*
X58500Y57700D01*
X57500Y55700D01*
X58500Y53700D01*
X56500Y54700D01*
X54500Y53700D01*
X88000Y53500D02*
X89000Y55500D01*
X88000Y57500D01*
X90000Y56500D01*
X92000Y57500D01*
X91000Y55500D01*
X92000Y53500D01*
X90000Y54500D01*
X88000Y53500D01*
X20000Y32200D02*
X21000Y34200D01*
X20000Y36200D01*
X22000Y35200D01*
X24000Y36200D01*
X23000Y34200D01*
X24000Y32200D01*
X22000Y33200D01*
X20000Y32200D01*
X77300Y58000D02*
X78300Y60000D01*
X77300Y62000D01*
X79300Y61000D01*
X81300Y62000D01*
X80300Y60000D01*
X81300Y58000D01*
X79300Y59000D01*
X77300Y58000D01*
X57500Y58700D02*
X58500Y60700D01*
X57500Y62700D01*
X59500Y61700D01*
X61500Y62700D01*
X60500Y60700D01*
X61500Y58700D01*
X59500Y59700D01*
X57500Y58700D01*
X94900Y229200D02*
X95900Y231200D01*
X94900Y233200D01*
X96900Y232200D01*
X98900Y233200D01*
X97900Y231200D01*
X98900Y229200D01*
X96900Y230200D01*
X94900Y229200D01*
X272449Y24594D02*
X273449Y26594D01*
X272449Y28594D01*
X274449Y27594D01*
X276449Y28594D01*
X275449Y26594D01*
X276449Y24594D01*
X274449Y25594D01*
X272449Y24594D01*
X97800Y208200D02*
X98800Y210200D01*
X97800Y212200D01*
X99800Y211200D01*
X101800Y212200D01*
X100800Y210200D01*
X101800Y208200D01*
X99800Y209200D01*
X97800Y208200D01*
X243600Y124063D02*
X244600Y126063D01*
X243600Y128063D01*
X245600Y127063D01*
X247600Y128063D01*
X246600Y126063D01*
X247600Y124063D01*
X245600Y125063D01*
X243600Y124063D01*
X99300Y158500D02*
X100300Y160500D01*
X99300Y162500D01*
X101300Y161500D01*
X103300Y162500D01*
X102300Y160500D01*
X103300Y158500D01*
X101300Y159500D01*
X99300Y158500D01*
X93315Y219332D02*
X94315Y221332D01*
X93315Y223332D01*
X95315Y222332D01*
X97315Y223332D01*
X96315Y221332D01*
X97315Y219332D01*
X95315Y220332D01*
X93315Y219332D01*
X171600Y319200D02*
X172600Y321200D01*
X171600Y323200D01*
X173600Y322200D01*
X175600Y323200D01*
X174600Y321200D01*
X175600Y319200D01*
X173600Y320200D01*
X171600Y319200D01*
X58700Y44600D02*
X59700Y46600D01*
X58700Y48600D01*
X60700Y47600D01*
X62700Y48600D01*
X61700Y46600D01*
X62700Y44600D01*
X60700Y45600D01*
X58700Y44600D01*
X48762Y192762D02*
X49762Y194762D01*
X48762Y196762D01*
X50762Y195762D01*
X52762Y196762D01*
X51762Y194762D01*
X52762Y192762D01*
X50762Y193762D01*
X48762Y192762D01*
X69969Y93000D02*
X70969Y95000D01*
X69969Y97000D01*
X71969Y96000D01*
X73969Y97000D01*
X72969Y95000D01*
X73969Y93000D01*
X71969Y94000D01*
X69969Y93000D01*
X160000Y69600D02*
X161000Y71600D01*
X160000Y73600D01*
X162000Y72600D01*
X164000Y73600D01*
X163000Y71600D01*
X164000Y69600D01*
X162000Y70600D01*
X160000Y69600D01*
X157600Y18400D02*
X158600Y20400D01*
X157600Y22400D01*
X159600Y21400D01*
X161600Y22400D01*
X160600Y20400D01*
X161600Y18400D01*
X159600Y19400D01*
X157600Y18400D01*
X156800Y116200D02*
X157800Y118200D01*
X156800Y120200D01*
X158800Y119200D01*
X160800Y120200D01*
X159800Y118200D01*
X160800Y116200D01*
X158800Y117200D01*
X156800Y116200D01*
X201300Y131800D02*
X202300Y133800D01*
X201300Y135800D01*
X203300Y134800D01*
X205300Y135800D01*
X204300Y133800D01*
X205300Y131800D01*
X203300Y132800D01*
X201300Y131800D01*
X137685Y140300D02*
X138685Y142300D01*
X137685Y144300D01*
X139685Y143300D01*
X141685Y144300D01*
X140685Y142300D01*
X141685Y140300D01*
X139685Y141300D01*
X137685Y140300D01*
X171100Y133200D02*
X172100Y135200D01*
X171100Y137200D01*
X173100Y136200D01*
X175100Y137200D01*
X174100Y135200D01*
X175100Y133200D01*
X173100Y134200D01*
X171100Y133200D01*
X36400Y245000D02*
X37400Y247000D01*
X36400Y249000D01*
X38400Y248000D01*
X40400Y249000D01*
X39400Y247000D01*
X40400Y245000D01*
X38400Y246000D01*
X36400Y245000D01*
X143800Y248581D02*
X144800Y250581D01*
X143800Y252581D01*
X145800Y251581D01*
X147800Y252581D01*
X146800Y250581D01*
X147800Y248581D01*
X145800Y249581D01*
X143800Y248581D01*
X243800Y248000D02*
X244800Y250000D01*
X243800Y252000D01*
X245800Y251000D01*
X247800Y252000D01*
X246800Y250000D01*
X247800Y248000D01*
X245800Y249000D01*
X243800Y248000D01*
X117606Y386800D02*
X118606Y388800D01*
X117606Y390800D01*
X119606Y389800D01*
X121606Y390800D01*
X120606Y388800D01*
X121606Y386800D01*
X119606Y387800D01*
X117606Y386800D01*
X174800Y434700D02*
X175800Y436700D01*
X174800Y438700D01*
X176800Y437700D01*
X178800Y438700D01*
X177800Y436700D01*
X178800Y434700D01*
X176800Y435700D01*
X174800Y434700D01*
X58906Y176900D02*
X59906Y178900D01*
X58906Y180900D01*
X60906Y179900D01*
X62906Y180900D01*
X61906Y178900D01*
X62906Y176900D01*
X60906Y177900D01*
X58906Y176900D01*
X85500D02*
X86500Y178900D01*
X85500Y180900D01*
X87500Y179900D01*
X89500Y180900D01*
X88500Y178900D01*
X89500Y176900D01*
X87500Y177900D01*
X85500Y176900D01*
X116300Y254100D02*
X117300Y256100D01*
X116300Y258100D01*
X118300Y257100D01*
X120300Y258100D01*
X119300Y256100D01*
X120300Y254100D01*
X118300Y255100D01*
X116300Y254100D01*
X111500Y253500D02*
X112500Y255500D01*
X111500Y257500D01*
X113500Y256500D01*
X115500Y257500D01*
X114500Y255500D01*
X115500Y253500D01*
X113500Y254500D01*
X111500Y253500D01*
Y266000D02*
X112500Y268000D01*
X111500Y270000D01*
X113500Y269000D01*
X115500Y270000D01*
X114500Y268000D01*
X115500Y266000D01*
X113500Y267000D01*
X111500Y266000D01*
X142800D02*
X143800Y268000D01*
X142800Y270000D01*
X144800Y269000D01*
X146800Y270000D01*
X145800Y268000D01*
X146800Y266000D01*
X144800Y267000D01*
X142800Y266000D01*
X143600Y273600D02*
X144600Y275600D01*
X143600Y277600D01*
X145600Y276600D01*
X147600Y277600D01*
X146600Y275600D01*
X147600Y273600D01*
X145600Y274600D01*
X143600Y273600D01*
X156300Y281300D02*
X157300Y283300D01*
X156300Y285300D01*
X158300Y284300D01*
X160300Y285300D01*
X159300Y283300D01*
X160300Y281300D01*
X158300Y282300D01*
X156300Y281300D01*
X153500Y318100D02*
X154500Y320100D01*
X153500Y322100D01*
X155500Y321100D01*
X157500Y322100D01*
X156500Y320100D01*
X157500Y318100D01*
X155500Y319100D01*
X153500Y318100D01*
X147800Y371400D02*
X148800Y373400D01*
X147800Y375400D01*
X149800Y374400D01*
X151800Y375400D01*
X150800Y373400D01*
X151800Y371400D01*
X149800Y372400D01*
X147800Y371400D01*
X133200D02*
X134200Y373400D01*
X133200Y375400D01*
X135200Y374400D01*
X137200Y375400D01*
X136200Y373400D01*
X137200Y371400D01*
X135200Y372400D01*
X133200Y371400D01*
X188500Y267300D02*
X189500Y269300D01*
X188500Y271300D01*
X190500Y270300D01*
X192500Y271300D01*
X191500Y269300D01*
X192500Y267300D01*
X190500Y268300D01*
X188500Y267300D01*
X163200Y385800D02*
X164200Y387800D01*
X163200Y389800D01*
X165200Y388800D01*
X167200Y389800D01*
X166200Y387800D01*
X167200Y385800D01*
X165200Y386800D01*
X163200Y385800D01*
X174000Y394200D02*
X175000Y396200D01*
X174000Y398200D01*
X176000Y397200D01*
X178000Y398200D01*
X177000Y396200D01*
X178000Y394200D01*
X176000Y395200D01*
X174000Y394200D01*
X104300Y244600D02*
X105300Y246600D01*
X104300Y248600D01*
X106300Y247600D01*
X108300Y248600D01*
X107300Y246600D01*
X108300Y244600D01*
X106300Y245600D01*
X104300Y244600D01*
Y272250D02*
X105300Y274250D01*
X104300Y276250D01*
X106300Y275250D01*
X108300Y276250D01*
X107300Y274250D01*
X108300Y272250D01*
X106300Y273250D01*
X104300Y272250D01*
X155700Y272121D02*
X156700Y274121D01*
X155700Y276121D01*
X157700Y275121D01*
X159700Y276121D01*
X158700Y274121D01*
X159700Y272121D01*
X157700Y273121D01*
X155700Y272121D01*
X151800Y256662D02*
X152800Y258662D01*
X151800Y260662D01*
X153800Y259662D01*
X155800Y260662D01*
X154800Y258662D01*
X155800Y256662D01*
X153800Y257662D01*
X151800Y256662D01*
X158669Y273269D02*
X159669Y275269D01*
X158669Y277269D01*
X160669Y276269D01*
X162669Y277269D01*
X161669Y275269D01*
X162669Y273269D01*
X160669Y274269D01*
X158669Y273269D01*
X122300Y322100D02*
X123300Y324100D01*
X122300Y326100D01*
X124300Y325100D01*
X126300Y326100D01*
X125300Y324100D01*
X126300Y322100D01*
X124300Y323100D01*
X122300Y322100D01*
X19100Y284300D02*
X20100Y286300D01*
X19100Y288300D01*
X21100Y287300D01*
X23100Y288300D01*
X22100Y286300D01*
X23100Y284300D01*
X21100Y285300D01*
X19100Y284300D01*
X118000Y390200D02*
X119000Y392200D01*
X118000Y394200D01*
X120000Y393200D01*
X122000Y394200D01*
X121000Y392200D01*
X122000Y390200D01*
X120000Y391200D01*
X118000Y390200D01*
X127843Y420700D02*
X128843Y422700D01*
X127843Y424700D01*
X129843Y423700D01*
X131843Y424700D01*
X130843Y422700D01*
X131843Y420700D01*
X129843Y421700D01*
X127843Y420700D01*
X158157Y324000D02*
X159157Y326000D01*
X158157Y328000D01*
X160157Y327000D01*
X162157Y328000D01*
X161157Y326000D01*
X162157Y324000D01*
X160157Y325000D01*
X158157Y324000D01*
X258000Y262300D02*
X259000Y264300D01*
X258000Y266300D01*
X260000Y265300D01*
X262000Y266300D01*
X261000Y264300D01*
X262000Y262300D01*
X260000Y263300D01*
X258000Y262300D01*
X168000Y330000D02*
X169000Y332000D01*
X168000Y334000D01*
X170000Y333000D01*
X172000Y334000D01*
X171000Y332000D01*
X172000Y330000D01*
X170000Y331000D01*
X168000Y330000D01*
X26900Y194600D02*
X27900Y196600D01*
X26900Y198600D01*
X28900Y197600D01*
X30900Y198600D01*
X29900Y196600D01*
X30900Y194600D01*
X28900Y195600D01*
X26900Y194600D01*
X116700Y405700D02*
X117700Y407700D01*
X116700Y409700D01*
X118700Y408700D01*
X120700Y409700D01*
X119700Y407700D01*
X120700Y405700D01*
X118700Y406700D01*
X116700Y405700D01*
X131400Y291600D02*
X132400Y293600D01*
X131400Y295600D01*
X133400Y294600D01*
X135400Y295600D01*
X134400Y293600D01*
X135400Y291600D01*
X133400Y292600D01*
X131400Y291600D01*
X134728Y297200D02*
X135728Y299200D01*
X134728Y301200D01*
X136728Y300200D01*
X138728Y301200D01*
X137728Y299200D01*
X138728Y297200D01*
X136728Y298200D01*
X134728Y297200D01*
X118000Y330000D02*
X119000Y332000D01*
X118000Y334000D01*
X120000Y333000D01*
X122000Y334000D01*
X121000Y332000D01*
X122000Y330000D01*
X120000Y331000D01*
X118000Y330000D01*
X137800Y250900D02*
X138800Y252900D01*
X137800Y254900D01*
X139800Y253900D01*
X141800Y254900D01*
X140800Y252900D01*
X141800Y250900D01*
X139800Y251900D01*
X137800Y250900D01*
X167300Y233000D02*
X168300Y235000D01*
X167300Y237000D01*
X169300Y236000D01*
X171300Y237000D01*
X170300Y235000D01*
X171300Y233000D01*
X169300Y234000D01*
X167300Y233000D01*
X89200Y319700D02*
X90200Y321700D01*
X89200Y323700D01*
X91200Y322700D01*
X93200Y323700D01*
X92200Y321700D01*
X93200Y319700D01*
X91200Y320700D01*
X89200Y319700D01*
X87800Y364220D02*
X88800Y366220D01*
X87800Y368220D01*
X89800Y367220D01*
X91800Y368220D01*
X90800Y366220D01*
X91800Y364220D01*
X89800Y365220D01*
X87800Y364220D01*
X129299Y188394D02*
X130299Y190394D01*
X129299Y192394D01*
X131299Y191394D01*
X133299Y192394D01*
X132299Y190394D01*
X133299Y188394D01*
X131299Y189394D01*
X129299Y188394D01*
X91700Y245681D02*
X92700Y247681D01*
X91700Y249681D01*
X93700Y248681D01*
X95700Y249681D01*
X94700Y247681D01*
X95700Y245681D01*
X93700Y246681D01*
X91700Y245681D01*
X109601Y190333D02*
X110601Y192333D01*
X109601Y194333D01*
X111601Y193333D01*
X113601Y194333D01*
X112601Y192333D01*
X113601Y190333D01*
X111601Y191333D01*
X109601Y190333D01*
X83000Y249000D02*
X84000Y251000D01*
X83000Y253000D01*
X85000Y252000D01*
X87000Y253000D01*
X86000Y251000D01*
X87000Y249000D01*
X85000Y250000D01*
X83000Y249000D01*
X88000Y316400D02*
X89000Y318400D01*
X88000Y320400D01*
X90000Y319400D01*
X92000Y320400D01*
X91000Y318400D01*
X92000Y316400D01*
X90000Y317400D01*
X88000Y316400D01*
X203000Y286569D02*
X204000Y288569D01*
X203000Y290569D01*
X205000Y289569D01*
X207000Y290569D01*
X206000Y288569D01*
X207000Y286569D01*
X205000Y287569D01*
X203000Y286569D01*
X205400Y290100D02*
X206400Y292100D01*
X205400Y294100D01*
X207400Y293100D01*
X209400Y294100D01*
X208400Y292100D01*
X209400Y290100D01*
X207400Y291100D01*
X205400Y290100D01*
X148900Y208474D02*
X149900Y210474D01*
X148900Y212474D01*
X150900Y211474D01*
X152900Y212474D01*
X151900Y210474D01*
X152900Y208474D01*
X150900Y209474D01*
X148900Y208474D01*
X218800Y229500D02*
X219800Y231500D01*
X218800Y233500D01*
X220800Y232500D01*
X222800Y233500D01*
X221800Y231500D01*
X222800Y229500D01*
X220800Y230500D01*
X218800Y229500D01*
X223000Y247700D02*
X224000Y249700D01*
X223000Y251700D01*
X225000Y250700D01*
X227000Y251700D01*
X226000Y249700D01*
X227000Y247700D01*
X225000Y248700D01*
X223000Y247700D01*
X91200Y295100D02*
X92200Y297100D01*
X91200Y299100D01*
X93200Y298100D01*
X95200Y299100D01*
X94200Y297100D01*
X95200Y295100D01*
X93200Y296100D01*
X91200Y295100D01*
X109200Y251400D02*
X110200Y253400D01*
X109200Y255400D01*
X111200Y254400D01*
X113200Y255400D01*
X112200Y253400D01*
X113200Y251400D01*
X111200Y252400D01*
X109200Y251400D01*
X110600Y336600D02*
X111600Y338600D01*
X110600Y340600D01*
X112600Y339600D01*
X114600Y340600D01*
X113600Y338600D01*
X114600Y336600D01*
X112600Y337600D01*
X110600Y336600D01*
X273000Y289900D02*
X274000Y291900D01*
X273000Y293900D01*
X275000Y292900D01*
X277000Y293900D01*
X276000Y291900D01*
X277000Y289900D01*
X275000Y290900D01*
X273000Y289900D01*
X198000Y317700D02*
X199000Y319700D01*
X198000Y321700D01*
X200000Y320700D01*
X202000Y321700D01*
X201000Y319700D01*
X202000Y317700D01*
X200000Y318700D01*
X198000Y317700D01*
X278000Y288200D02*
X279000Y290200D01*
X278000Y292200D01*
X280000Y291200D01*
X282000Y292200D01*
X281000Y290200D01*
X282000Y288200D01*
X280000Y289200D01*
X278000Y288200D01*
X47800Y257900D02*
X48800Y259900D01*
X47800Y261900D01*
X49800Y260900D01*
X51800Y261900D01*
X50800Y259900D01*
X51800Y257900D01*
X49800Y258900D01*
X47800Y257900D01*
X28700Y478500D02*
X29700Y480500D01*
X28700Y482500D01*
X30700Y481500D01*
X32700Y482500D01*
X31700Y480500D01*
X32700Y478500D01*
X30700Y479500D01*
X28700Y478500D01*
X278000Y296300D02*
X279000Y298300D01*
X278000Y300300D01*
X280000Y299300D01*
X282000Y300300D01*
X281000Y298300D01*
X282000Y296300D01*
X280000Y297300D01*
X278000Y296300D01*
Y292300D02*
X279000Y294300D01*
X278000Y296300D01*
X280000Y295300D01*
X282000Y296300D01*
X281000Y294300D01*
X282000Y292300D01*
X280000Y293300D01*
X278000Y292300D01*
X18000Y493000D02*
X19000Y495000D01*
X18000Y497000D01*
X20000Y496000D01*
X22000Y497000D01*
X21000Y495000D01*
X22000Y493000D01*
X20000Y494000D01*
X18000Y493000D01*
X86000Y373500D02*
X87000Y375500D01*
X86000Y377500D01*
X88000Y376500D01*
X90000Y377500D01*
X89000Y375500D01*
X90000Y373500D01*
X88000Y374500D01*
X86000Y373500D01*
X26000Y83680D02*
X27000Y85680D01*
X26000Y87680D01*
X28000Y86680D01*
X30000Y87680D01*
X29000Y85680D01*
X30000Y83680D01*
X28000Y84680D01*
X26000Y83680D01*
X31662Y195500D02*
X32662Y197500D01*
X31662Y199500D01*
X33662Y198500D01*
X35662Y199500D01*
X34662Y197500D01*
X35662Y195500D01*
X33662Y196500D01*
X31662Y195500D01*
Y199000D02*
X32662Y201000D01*
X31662Y203000D01*
X33662Y202000D01*
X35662Y203000D01*
X34662Y201000D01*
X35662Y199000D01*
X33662Y200000D01*
X31662Y199000D01*
X70900Y208200D02*
X71900Y210200D01*
X70900Y212200D01*
X72900Y211200D01*
X74900Y212200D01*
X73900Y210200D01*
X74900Y208200D01*
X72900Y209200D01*
X70900Y208200D01*
X54000Y207000D02*
X55000Y209000D01*
X54000Y211000D01*
X56000Y210000D01*
X58000Y211000D01*
X57000Y209000D01*
X58000Y207000D01*
X56000Y208000D01*
X54000Y207000D01*
X71500Y234574D02*
X72500Y236574D01*
X71500Y238574D01*
X73500Y237574D01*
X75500Y238574D01*
X74500Y236574D01*
X75500Y234574D01*
X73500Y235574D01*
X71500Y234574D01*
X80500Y133000D02*
X81500Y135000D01*
X80500Y137000D01*
X82500Y136000D01*
X84500Y137000D01*
X83500Y135000D01*
X84500Y133000D01*
X82500Y134000D01*
X80500Y133000D01*
X100500Y131938D02*
X101500Y133938D01*
X100500Y135938D01*
X102500Y134938D01*
X104500Y135938D01*
X103500Y133938D01*
X104500Y131938D01*
X102500Y132938D01*
X100500Y131938D01*
X80500Y120500D02*
X81500Y122500D01*
X80500Y124500D01*
X82500Y123500D01*
X84500Y124500D01*
X83500Y122500D01*
X84500Y120500D01*
X82500Y121500D01*
X80500Y120500D01*
X117862Y192762D02*
X118862Y194762D01*
X117862Y196762D01*
X119862Y195762D01*
X121862Y196762D01*
X120862Y194762D01*
X121862Y192762D01*
X119862Y193762D01*
X117862Y192762D01*
X160300Y226500D02*
X161300Y228500D01*
X160300Y230500D01*
X162300Y229500D01*
X164300Y230500D01*
X163300Y228500D01*
X164300Y226500D01*
X162300Y227500D01*
X160300Y226500D01*
X243669Y228315D02*
X244669Y230315D01*
X243669Y232315D01*
X245669Y231315D01*
X247669Y232315D01*
X246669Y230315D01*
X247669Y228315D01*
X245669Y229315D01*
X243669Y228315D01*
X77900Y136706D02*
X78900Y138706D01*
X77900Y140706D01*
X79900Y139706D01*
X81900Y140706D01*
X80900Y138706D01*
X81900Y136706D01*
X79900Y137706D01*
X77900Y136706D01*
X75800Y114000D02*
X76800Y116000D01*
X75800Y118000D01*
X77800Y117000D01*
X79800Y118000D01*
X78800Y116000D01*
X79800Y114000D01*
X77800Y115000D01*
X75800Y114000D01*
X24400Y197400D02*
X25400Y199400D01*
X24400Y201400D01*
X26400Y200400D01*
X28400Y201400D01*
X27400Y199400D01*
X28400Y197400D01*
X26400Y198400D01*
X24400Y197400D01*
X19200Y294000D02*
X20200Y296000D01*
X19200Y298000D01*
X21200Y297000D01*
X23200Y298000D01*
X22200Y296000D01*
X23200Y294000D01*
X21200Y295000D01*
X19200Y294000D01*
X135200Y179300D02*
X136200Y181300D01*
X135200Y183300D01*
X137200Y182300D01*
X139200Y183300D01*
X138200Y181300D01*
X139200Y179300D01*
X137200Y180300D01*
X135200Y179300D01*
X52400Y183100D02*
X53400Y185100D01*
X52400Y187100D01*
X54400Y186100D01*
X56400Y187100D01*
X55400Y185100D01*
X56400Y183100D01*
X54400Y184100D01*
X52400Y183100D01*
X31800Y223000D02*
X32800Y225000D01*
X31800Y227000D01*
X33800Y226000D01*
X35800Y227000D01*
X34800Y225000D01*
X35800Y223000D01*
X33800Y224000D01*
X31800Y223000D01*
X38000Y250000D02*
X39000Y252000D01*
X38000Y254000D01*
X40000Y253000D01*
X42000Y254000D01*
X41000Y252000D01*
X42000Y250000D01*
X40000Y251000D01*
X38000Y250000D01*
X162900Y257300D02*
X163900Y259300D01*
X162900Y261300D01*
X164900Y260300D01*
X166900Y261300D01*
X165900Y259300D01*
X166900Y257300D01*
X164900Y258300D01*
X162900Y257300D01*
X109457Y219563D02*
X110457Y221563D01*
X109457Y223563D01*
X111457Y222563D01*
X113457Y223563D01*
X112457Y221563D01*
X113457Y219563D01*
X111457Y220563D01*
X109457Y219563D01*
X122000Y217594D02*
X123000Y219594D01*
X122000Y221594D01*
X124000Y220594D01*
X126000Y221594D01*
X125000Y219594D01*
X126000Y217594D01*
X124000Y218594D01*
X122000Y217594D01*
X129338Y221137D02*
X130338Y223137D01*
X129338Y225137D01*
X131338Y224137D01*
X133338Y225137D01*
X132338Y223137D01*
X133338Y221137D01*
X131338Y222137D01*
X129338Y221137D01*
X36138Y225301D02*
X37138Y227301D01*
X36138Y229301D01*
X38138Y228301D01*
X40138Y229301D01*
X39138Y227301D01*
X40138Y225301D01*
X38138Y226301D01*
X36138Y225301D01*
X89100Y112100D02*
X90100Y114100D01*
X89100Y116100D01*
X91100Y115100D01*
X93100Y116100D01*
X92100Y114100D01*
X93100Y112100D01*
X91100Y113100D01*
X89100Y112100D01*
X48500Y137000D02*
X49500Y139000D01*
X48500Y141000D01*
X50500Y140000D01*
X52500Y141000D01*
X51500Y139000D01*
X52500Y137000D01*
X50500Y138000D01*
X48500Y137000D01*
X32000Y136169D02*
X33000Y138169D01*
X32000Y140169D01*
X34000Y139169D01*
X36000Y140169D01*
X35000Y138169D01*
X36000Y136169D01*
X34000Y137169D01*
X32000Y136169D01*
X110500Y41362D02*
X111500Y43362D01*
X110500Y45362D01*
X112500Y44362D01*
X114500Y45362D01*
X113500Y43362D01*
X114500Y41362D01*
X112500Y42362D01*
X110500Y41362D01*
X164000Y30038D02*
X165000Y32038D01*
X164000Y34038D01*
X166000Y33038D01*
X168000Y34038D01*
X167000Y32038D01*
X168000Y30038D01*
X166000Y31038D01*
X164000Y30038D01*
X48000Y145500D02*
X49000Y147500D01*
X48000Y149500D01*
X50000Y148500D01*
X52000Y149500D01*
X51000Y147500D01*
X52000Y145500D01*
X50000Y146500D01*
X48000Y145500D01*
X44975Y161983D02*
X45975Y163983D01*
X44975Y165983D01*
X46975Y164983D01*
X48975Y165983D01*
X47975Y163983D01*
X48975Y161983D01*
X46975Y162983D01*
X44975Y161983D01*
X30809Y161460D02*
X31809Y163460D01*
X30809Y165460D01*
X32809Y164460D01*
X34809Y165460D01*
X33809Y163460D01*
X34809Y161460D01*
X32809Y162460D01*
X30809Y161460D01*
X24200Y148300D02*
X25200Y150300D01*
X24200Y152300D01*
X26200Y151300D01*
X28200Y152300D01*
X27200Y150300D01*
X28200Y148300D01*
X26200Y149300D01*
X24200Y148300D01*
X254500Y145000D02*
X255500Y147000D01*
X254500Y149000D01*
X256500Y148000D01*
X258500Y149000D01*
X257500Y147000D01*
X258500Y145000D01*
X256500Y146000D01*
X254500Y145000D01*
X92138Y118500D02*
X93138Y120500D01*
X92138Y122500D01*
X94138Y121500D01*
X96138Y122500D01*
X95138Y120500D01*
X96138Y118500D01*
X94138Y119500D01*
X92138Y118500D01*
X152000Y4000D02*
X153000Y6000D01*
X152000Y8000D01*
X154000Y7000D01*
X156000Y8000D01*
X155000Y6000D01*
X156000Y4000D01*
X154000Y5000D01*
X152000Y4000D01*
X156938Y387500D02*
X157938Y389500D01*
X156938Y391500D01*
X158938Y390500D01*
X160938Y391500D01*
X159938Y389500D01*
X160938Y387500D01*
X158938Y388500D01*
X156938Y387500D01*
X118000Y200000D02*
X119000Y202000D01*
X118000Y204000D01*
X120000Y203000D01*
X122000Y204000D01*
X121000Y202000D01*
X122000Y200000D01*
X120000Y201000D01*
X118000Y200000D01*
X70500Y197500D02*
X71500Y199500D01*
X70500Y201500D01*
X72500Y200500D01*
X74500Y201500D01*
X73500Y199500D01*
X74500Y197500D01*
X72500Y198500D01*
X70500Y197500D01*
X152000Y87000D02*
X153000Y89000D01*
X152000Y91000D01*
X154000Y90000D01*
X156000Y91000D01*
X155000Y89000D01*
X156000Y87000D01*
X154000Y88000D01*
X152000Y87000D01*
X148925Y83075D02*
X149925Y85075D01*
X148925Y87075D01*
X150925Y86075D01*
X152925Y87075D01*
X151925Y85075D01*
X152925Y83075D01*
X150925Y84075D01*
X148925Y83075D01*
X253900Y254645D02*
X254900Y256645D01*
X253900Y258645D01*
X255900Y257645D01*
X257900Y258645D01*
X256900Y256645D01*
X257900Y254645D01*
X255900Y255645D01*
X253900Y254645D01*
X25500Y294000D02*
X26500Y296000D01*
X25500Y298000D01*
X27500Y297000D01*
X29500Y298000D01*
X28500Y296000D01*
X29500Y294000D01*
X27500Y295000D01*
X25500Y294000D01*
X156575Y295075D02*
X157575Y297075D01*
X156575Y299075D01*
X158575Y298075D01*
X160575Y299075D01*
X159575Y297075D01*
X160575Y295075D01*
X158575Y296075D01*
X156575Y295075D01*
X235796Y308800D02*
X236796Y310800D01*
X235796Y312800D01*
X237796Y311800D01*
X239796Y312800D01*
X238796Y310800D01*
X239796Y308800D01*
X237796Y309800D01*
X235796Y308800D01*
X241000Y267500D02*
Y266500D01*
X243000D01*
Y267500D01*
X244000D01*
Y269500D01*
X243000D01*
Y270500D01*
X241000D01*
Y269500D01*
X240000D01*
Y267500D01*
X241000D01*
X44500Y167000D02*
X45500Y169000D01*
X44500Y171000D01*
X46500Y170000D01*
X48500Y171000D01*
X47500Y169000D01*
X48500Y167000D01*
X46500Y168000D01*
X44500Y167000D01*
X132900Y163800D02*
X133900Y165800D01*
X132900Y167800D01*
X134900Y166800D01*
X136900Y167800D01*
X135900Y165800D01*
X136900Y163800D01*
X134900Y164800D01*
X132900Y163800D01*
X223000Y277000D02*
Y276000D01*
X225000D01*
Y277000D01*
X226000D01*
Y279000D01*
X225000D01*
Y280000D01*
X223000D01*
Y279000D01*
X222000D01*
Y277000D01*
X223000D01*
X145000Y382500D02*
Y381500D01*
X147000D01*
Y382500D01*
X148000D01*
Y384500D01*
X147000D01*
Y385500D01*
X145000D01*
Y384500D01*
X144000D01*
Y382500D01*
X145000D01*
X175500Y316500D02*
Y315500D01*
X177500D01*
Y316500D01*
X178500D01*
Y318500D01*
X177500D01*
Y319500D01*
X175500D01*
Y318500D01*
X174500D01*
Y316500D01*
X175500D01*
X200500Y378500D02*
Y377500D01*
X202500D01*
Y378500D01*
X203500D01*
Y380500D01*
X202500D01*
Y381500D01*
X200500D01*
Y380500D01*
X199500D01*
Y378500D01*
X200500D01*
X195000Y417000D02*
Y416000D01*
X197000D01*
Y417000D01*
X198000D01*
Y419000D01*
X197000D01*
Y420000D01*
X195000D01*
Y419000D01*
X194000D01*
Y417000D01*
X195000D01*
X200500Y440500D02*
Y439500D01*
X202500D01*
Y440500D01*
X203500D01*
Y442500D01*
X202500D01*
Y443500D01*
X200500D01*
Y442500D01*
X199500D01*
Y440500D01*
X200500D01*
X170500Y412500D02*
Y411500D01*
X172500D01*
Y412500D01*
X173500D01*
Y414500D01*
X172500D01*
Y415500D01*
X170500D01*
Y414500D01*
X169500D01*
Y412500D01*
X170500D01*
X56500Y313000D02*
Y312000D01*
X58500D01*
Y313000D01*
X59500D01*
Y315000D01*
X58500D01*
Y316000D01*
X56500D01*
Y315000D01*
X55500D01*
Y313000D01*
X56500D01*
X144000Y429000D02*
Y428000D01*
X146000D01*
Y429000D01*
X147000D01*
Y431000D01*
X146000D01*
Y432000D01*
X144000D01*
Y431000D01*
X143000D01*
Y429000D01*
X144000D01*
X106500Y439000D02*
Y438000D01*
X108500D01*
Y439000D01*
X109500D01*
Y441000D01*
X108500D01*
Y442000D01*
X106500D01*
Y441000D01*
X105500D01*
Y439000D01*
X106500D01*
X52500Y341000D02*
Y340000D01*
X54500D01*
Y341000D01*
X55500D01*
Y343000D01*
X54500D01*
Y344000D01*
X52500D01*
Y343000D01*
X51500D01*
Y341000D01*
X52500D01*
X122500Y350000D02*
Y349000D01*
X124500D01*
Y350000D01*
X125500D01*
Y352000D01*
X124500D01*
Y353000D01*
X122500D01*
Y352000D01*
X121500D01*
Y350000D01*
X122500D01*
X221500Y326000D02*
Y325000D01*
X223500D01*
Y326000D01*
X224500D01*
Y328000D01*
X223500D01*
Y329000D01*
X221500D01*
Y328000D01*
X220500D01*
Y326000D01*
X221500D01*
X33000Y235000D02*
Y234000D01*
X35000D01*
Y235000D01*
X36000D01*
Y237000D01*
X35000D01*
Y238000D01*
X33000D01*
Y237000D01*
X32000D01*
Y235000D01*
X33000D01*
X6000Y231000D02*
Y230000D01*
X8000D01*
Y231000D01*
X9000D01*
Y233000D01*
X8000D01*
Y234000D01*
X6000D01*
Y233000D01*
X5000D01*
Y231000D01*
X6000D01*
X18600Y233100D02*
X19600Y235100D01*
X18600Y237100D01*
X20600Y236100D01*
X22600Y237100D01*
X21600Y235100D01*
X22600Y233100D01*
X20600Y234100D01*
X18600Y233100D01*
X19500Y190500D02*
Y189500D01*
X21500D01*
Y190500D01*
X22500D01*
Y192500D01*
X21500D01*
Y193500D01*
X19500D01*
Y192500D01*
X18500D01*
Y190500D01*
X19500D01*
X19000Y183762D02*
X20000Y185762D01*
X19000Y187762D01*
X21000Y186762D01*
X23000Y187762D01*
X22000Y185762D01*
X23000Y183762D01*
X21000Y184762D01*
X19000Y183762D01*
X252500Y261000D02*
Y260000D01*
X254500D01*
Y261000D01*
X255500D01*
Y263000D01*
X254500D01*
Y264000D01*
X252500D01*
Y263000D01*
X251500D01*
Y261000D01*
X252500D01*
X113500Y241000D02*
Y240000D01*
X115500D01*
Y241000D01*
X116500D01*
Y243000D01*
X115500D01*
Y244000D01*
X113500D01*
Y243000D01*
X112500D01*
Y241000D01*
X113500D01*
X82151Y237849D02*
X83151Y239849D01*
X82151Y241849D01*
X84151Y240849D01*
X86151Y241849D01*
X85151Y239849D01*
X86151Y237849D01*
X84151Y238849D01*
X82151Y237849D01*
X143500Y221500D02*
Y220500D01*
X145500D01*
Y221500D01*
X146500D01*
Y223500D01*
X145500D01*
Y224500D01*
X143500D01*
Y223500D01*
X142500D01*
Y221500D01*
X143500D01*
X137862Y210349D02*
X138862Y212349D01*
X137862Y214349D01*
X139862Y213349D01*
X141862Y214349D01*
X140862Y212349D01*
X141862Y210349D01*
X139862Y211349D01*
X137862Y210349D01*
X122000Y210835D02*
X123000Y212835D01*
X122000Y214834D01*
X124000Y213835D01*
X126000Y214834D01*
X125000Y212835D01*
X126000Y210835D01*
X124000Y211835D01*
X122000Y210835D01*
X73928Y232212D02*
X74928Y234212D01*
X73928Y236212D01*
X75928Y235212D01*
X77928Y236212D01*
X76928Y234212D01*
X77928Y232212D01*
X75928Y233212D01*
X73928Y232212D01*
X63500Y236500D02*
Y235500D01*
X65500D01*
Y236500D01*
X66500D01*
Y238500D01*
X65500D01*
Y239500D01*
X63500D01*
Y238500D01*
X62500D01*
Y236500D01*
X63500D01*
X11500Y106500D02*
Y105500D01*
X13500D01*
Y106500D01*
X14500D01*
Y108500D01*
X13500D01*
Y109500D01*
X11500D01*
Y108500D01*
X10500D01*
Y106500D01*
X11500D01*
X131288Y168728D02*
X132288Y170728D01*
X131288Y172728D01*
X133288Y171728D01*
X135288Y172728D01*
X134288Y170728D01*
X135288Y168728D01*
X133288Y169728D01*
X131288Y168728D01*
X75500Y68000D02*
Y67000D01*
X77500D01*
Y68000D01*
X78500D01*
Y70000D01*
X77500D01*
Y71000D01*
X75500D01*
Y70000D01*
X74500D01*
Y68000D01*
X75500D01*
X43962Y128400D02*
X44962Y130400D01*
X43962Y132400D01*
X45962Y131400D01*
X47962Y132400D01*
X46962Y130400D01*
X47962Y128400D01*
X45962Y129400D01*
X43962Y128400D01*
X145165Y55962D02*
X146165Y57962D01*
X145165Y59962D01*
X147165Y58962D01*
X149165Y59962D01*
X148165Y57962D01*
X149165Y55962D01*
X147165Y56962D01*
X145165Y55962D01*
X50420Y91920D02*
X51420Y93920D01*
X50420Y95920D01*
X52420Y94920D01*
X54420Y95920D01*
X53420Y93920D01*
X54420Y91920D01*
X52420Y92920D01*
X50420Y91920D01*
X52427Y131487D02*
X53427Y133487D01*
X52427Y135487D01*
X54427Y134487D01*
X56427Y135487D01*
X55427Y133487D01*
X56427Y131487D01*
X54427Y132487D01*
X52427Y131487D01*
X73548Y170048D02*
X74548Y172048D01*
X73548Y174048D01*
X75548Y173048D01*
X77548Y174048D01*
X76548Y172048D01*
X77548Y170048D01*
X75548Y171048D01*
X73548Y170048D01*
X84000Y206500D02*
Y205500D01*
X86000D01*
Y206500D01*
X87000D01*
Y208500D01*
X86000D01*
Y209500D01*
X84000D01*
Y208500D01*
X83000D01*
Y206500D01*
X84000D01*
X118817Y135803D02*
X119817Y137803D01*
X118817Y139804D01*
X120817Y138804D01*
X122818Y139804D01*
X121818Y137803D01*
X122818Y135803D01*
X120817Y136803D01*
X118817Y135803D01*
X24000Y26638D02*
X25000Y28638D01*
X24000Y30638D01*
X26000Y29638D01*
X28000Y30638D01*
X27000Y28638D01*
X28000Y26638D01*
X26000Y27638D01*
X24000Y26638D01*
X268000Y216638D02*
X269000Y218638D01*
X268000Y220638D01*
X270000Y219638D01*
X272000Y220638D01*
X271000Y218638D01*
X272000Y216638D01*
X270000Y217638D01*
X268000Y216638D01*
X161000Y211500D02*
X162000Y213500D01*
X161000Y215500D01*
X163000Y214500D01*
X165000Y215500D01*
X164000Y213500D01*
X165000Y211500D01*
X163000Y212500D01*
X161000Y211500D01*
X48000Y225500D02*
X49000Y227500D01*
X48000Y229500D01*
X50000Y228500D01*
X52000Y229500D01*
X51000Y227500D01*
X52000Y225500D01*
X50000Y226500D01*
X48000Y225500D01*
X76000Y150000D02*
Y149000D01*
X78000D01*
Y150000D01*
X79000D01*
Y152000D01*
X78000D01*
Y153000D01*
X76000D01*
Y152000D01*
X75000D01*
Y150000D01*
X76000D01*
X30000Y149891D02*
Y148891D01*
X32000D01*
Y149891D01*
X33000D01*
Y151891D01*
X32000D01*
Y152891D01*
X30000D01*
Y151891D01*
X29000D01*
Y149891D01*
X30000D01*
X43000Y159500D02*
X44000Y161500D01*
X43000Y163500D01*
X45000Y162500D01*
X47000Y163500D01*
X46000Y161500D01*
X47000Y159500D01*
X45000Y160500D01*
X43000Y159500D01*
X49500Y109500D02*
Y108500D01*
X51500D01*
Y109500D01*
X52500D01*
Y111500D01*
X51500D01*
Y112500D01*
X49500D01*
Y111500D01*
X48500D01*
Y109500D01*
X49500D01*
X222000Y30000D02*
X223000Y32000D01*
X222000Y34000D01*
X224000Y33000D01*
X226000Y34000D01*
X225000Y32000D01*
X226000Y30000D01*
X224000Y31000D01*
X222000Y30000D01*
X153000Y125000D02*
X154000Y127000D01*
X153000Y129000D01*
X155000Y128000D01*
X157000Y129000D01*
X156000Y127000D01*
X157000Y125000D01*
X155000Y126000D01*
X153000Y125000D01*
X53100Y120861D02*
X54100Y122861D01*
X53100Y124861D01*
X55100Y123861D01*
X57100Y124861D01*
X56100Y122861D01*
X57100Y120861D01*
X55100Y121861D01*
X53100Y120861D01*
X64500Y112500D02*
Y111500D01*
X66500D01*
Y112500D01*
X67500D01*
Y114500D01*
X66500D01*
Y115500D01*
X64500D01*
Y114500D01*
X63500D01*
Y112500D01*
X64500D01*
X90000Y139154D02*
Y138154D01*
X92000D01*
Y139154D01*
X93000D01*
Y141154D01*
X92000D01*
Y142154D01*
X90000D01*
Y141154D01*
X89000D01*
Y139154D01*
X90000D01*
X235000Y200500D02*
Y199500D01*
X237000D01*
Y200500D01*
X238000D01*
Y202500D01*
X237000D01*
Y203500D01*
X235000D01*
Y202500D01*
X234000D01*
Y200500D01*
X235000D01*
X210000Y205500D02*
Y204500D01*
X212000D01*
Y205500D01*
X213000D01*
Y207500D01*
X212000D01*
Y208500D01*
X210000D01*
Y207500D01*
X209000D01*
Y205500D01*
X210000D01*
X245638Y167500D02*
X246638Y169500D01*
X245638Y171500D01*
X247638Y170500D01*
X249638Y171500D01*
X248638Y169500D01*
X249638Y167500D01*
X247638Y168500D01*
X245638Y167500D01*
X254000Y189500D02*
Y188500D01*
X256000D01*
Y189500D01*
X257000D01*
Y191500D01*
X256000D01*
Y192500D01*
X254000D01*
Y191500D01*
X253000D01*
Y189500D01*
X254000D01*
X208000Y153500D02*
Y152500D01*
X210000D01*
Y153500D01*
X211000D01*
Y155500D01*
X210000D01*
Y156500D01*
X208000D01*
Y155500D01*
X207000D01*
Y153500D01*
X208000D01*
Y137000D02*
Y136000D01*
X210000D01*
Y137000D01*
X211000D01*
Y139000D01*
X210000D01*
Y140000D01*
X208000D01*
Y139000D01*
X207000D01*
Y137000D01*
X208000D01*
X274000Y202500D02*
Y201500D01*
X276000D01*
Y202500D01*
X277000D01*
Y204500D01*
X276000D01*
Y205500D01*
X274000D01*
Y204500D01*
X273000D01*
Y202500D01*
X274000D01*
X141500Y155500D02*
Y154500D01*
X143500D01*
Y155500D01*
X144500D01*
Y157500D01*
X143500D01*
Y158500D01*
X141500D01*
Y157500D01*
X140500D01*
Y155500D01*
X141500D01*
X142500Y168154D02*
Y167154D01*
X144500D01*
Y168154D01*
X145500D01*
Y170153D01*
X144500D01*
Y171153D01*
X142500D01*
Y170153D01*
X141500D01*
Y168154D01*
X142500D01*
X126500Y124500D02*
Y123500D01*
X128500D01*
Y124500D01*
X129500D01*
Y126500D01*
X128500D01*
Y127500D01*
X126500D01*
Y126500D01*
X125500D01*
Y124500D01*
X126500D01*
X167000Y200500D02*
Y199500D01*
X169000D01*
Y200500D01*
X170000D01*
Y202500D01*
X169000D01*
Y203500D01*
X167000D01*
Y202500D01*
X166000D01*
Y200500D01*
X167000D01*
X170500Y195000D02*
X171500Y197000D01*
X170500Y199000D01*
X172500Y198000D01*
X174500Y199000D01*
X173500Y197000D01*
X174500Y195000D01*
X172500Y196000D01*
X170500Y195000D01*
X151000Y193046D02*
Y192046D01*
X153000D01*
Y193046D01*
X154000D01*
Y195046D01*
X153000D01*
Y196046D01*
X151000D01*
Y195046D01*
X150000D01*
Y193046D01*
X151000D01*
X142500Y187000D02*
X143500Y189000D01*
X142500Y191000D01*
X144500Y190000D01*
X146500Y191000D01*
X145500Y189000D01*
X146500Y187000D01*
X144500Y188000D01*
X142500Y187000D01*
X200000Y202000D02*
Y201000D01*
X202000D01*
Y202000D01*
X203000D01*
Y204000D01*
X202000D01*
Y205000D01*
X200000D01*
Y204000D01*
X199000D01*
Y202000D01*
X200000D01*
X193000Y204000D02*
X194000Y206000D01*
X193000Y208000D01*
X195000Y207000D01*
X197000Y208000D01*
X196000Y206000D01*
X197000Y204000D01*
X195000Y205000D01*
X193000Y204000D01*
X213000Y314000D02*
X214000Y316000D01*
X213000Y318000D01*
X215000Y317000D01*
X217000Y318000D01*
X216000Y316000D01*
X217000Y314000D01*
X215000Y315000D01*
X213000Y314000D01*
X22000Y204500D02*
X23000Y206500D01*
X22000Y208500D01*
X24000Y207500D01*
X26000Y208500D01*
X25000Y206500D01*
X26000Y204500D01*
X24000Y205500D01*
X22000Y204500D01*
X24000Y223500D02*
X25000Y225500D01*
X24000Y227500D01*
X26000Y226500D01*
X28000Y227500D01*
X27000Y225500D01*
X28000Y223500D01*
X26000Y224500D01*
X24000Y223500D01*
X9500Y223000D02*
X10500Y225000D01*
X9500Y227000D01*
X11500Y226000D01*
X13500Y227000D01*
X12500Y225000D01*
X13500Y223000D01*
X11500Y224000D01*
X9500Y223000D01*
Y206500D02*
X10500Y208500D01*
X9500Y210500D01*
X11500Y209500D01*
X13500Y210500D01*
X12500Y208500D01*
X13500Y206500D01*
X11500Y207500D01*
X9500Y206500D01*
X44138Y153500D02*
X45138Y155500D01*
X44138Y157500D01*
X46138Y156500D01*
X48138Y157500D01*
X47138Y155500D01*
X48138Y153500D01*
X46138Y154500D01*
X44138Y153500D01*
X31500Y119500D02*
X32500Y121500D01*
X31500Y123500D01*
X33500Y122500D01*
X35500Y123500D01*
X34500Y121500D01*
X35500Y119500D01*
X33500Y120500D01*
X31500Y119500D01*
X51976Y233200D02*
X52976Y235200D01*
X51976Y237200D01*
X53976Y236200D01*
X55976Y237200D01*
X54976Y235200D01*
X55976Y233200D01*
X53976Y234200D01*
X51976Y233200D01*
X99500Y237800D02*
X100500Y239800D01*
X99500Y241800D01*
X101500Y240800D01*
X103500Y241800D01*
X102500Y239800D01*
X103500Y237800D01*
X101500Y238800D01*
X99500Y237800D01*
X104000D02*
X105000Y239800D01*
X104000Y241800D01*
X106000Y240800D01*
X108000Y241800D01*
X107000Y239800D01*
X108000Y237800D01*
X106000Y238800D01*
X104000Y237800D01*
X76000Y238000D02*
X77000Y240000D01*
X76000Y242000D01*
X78000Y241000D01*
X80000Y242000D01*
X79000Y240000D01*
X80000Y238000D01*
X78000Y239000D01*
X76000Y238000D01*
X73500Y119500D02*
X74500Y121500D01*
X73500Y123500D01*
X75500Y122500D01*
X77500Y123500D01*
X76500Y121500D01*
X77500Y119500D01*
X75500Y120500D01*
X73500Y119500D01*
X116862Y170000D02*
X117862Y172000D01*
X116862Y174000D01*
X118862Y173000D01*
X120862Y174000D01*
X119862Y172000D01*
X120862Y170000D01*
X118862Y171000D01*
X116862Y170000D01*
X163000Y225500D02*
X164000Y227500D01*
X163000Y229500D01*
X165000Y228500D01*
X167000Y229500D01*
X166000Y227500D01*
X167000Y225500D01*
X165000Y226500D01*
X163000Y225500D01*
X165000Y223000D02*
X166000Y225000D01*
X165000Y227000D01*
X167000Y226000D01*
X169000Y227000D01*
X168000Y225000D01*
X169000Y223000D01*
X167000Y224000D01*
X165000Y223000D01*
X163500Y207500D02*
X164500Y209500D01*
X163500Y211500D01*
X165500Y210500D01*
X167500Y211500D01*
X166500Y209500D01*
X167500Y207500D01*
X165500Y208500D01*
X163500Y207500D01*
X168500Y220500D02*
X169500Y222500D01*
X168500Y224500D01*
X170500Y223500D01*
X172500Y224500D01*
X171500Y222500D01*
X172500Y220500D01*
X170500Y221500D01*
X168500Y220500D01*
X166000Y204500D02*
X167000Y206500D01*
X166000Y208500D01*
X168000Y207500D01*
X170000Y208500D01*
X169000Y206500D01*
X170000Y204500D01*
X168000Y205500D01*
X166000Y204500D01*
X280500Y218500D02*
X281500Y220500D01*
X280500Y222500D01*
X282500Y221500D01*
X284500Y222500D01*
X283500Y220500D01*
X284500Y218500D01*
X282500Y219500D01*
X280500Y218500D01*
X252500Y221500D02*
X253500Y223500D01*
X252500Y225500D01*
X254500Y224500D01*
X256500Y225500D01*
X255500Y223500D01*
X256500Y221500D01*
X254500Y222500D01*
X252500Y221500D01*
Y215500D02*
X253500Y217500D01*
X252500Y219500D01*
X254500Y218500D01*
X256500Y219500D01*
X255500Y217500D01*
X256500Y215500D01*
X254500Y216500D01*
X252500Y215500D01*
X125500Y107600D02*
X126500Y109600D01*
X125500Y111600D01*
X127500Y110600D01*
X129500Y111600D01*
X128500Y109600D01*
X129500Y107600D01*
X127500Y108600D01*
X125500Y107600D01*
X53000Y285100D02*
X54000Y287100D01*
X53000Y289100D01*
X55000Y288100D01*
X57000Y289100D01*
X56000Y287100D01*
X57000Y285100D01*
X55000Y286100D01*
X53000Y285100D01*
X123900Y291600D02*
X124900Y293600D01*
X123900Y295600D01*
X125900Y294600D01*
X127900Y295600D01*
X126900Y293600D01*
X127900Y291600D01*
X125900Y292600D01*
X123900Y291600D01*
X108000Y292400D02*
X109000Y294400D01*
X108000Y296400D01*
X110000Y295400D01*
X112000Y296400D01*
X111000Y294400D01*
X112000Y292400D01*
X110000Y293400D01*
X108000Y292400D01*
X193000Y291500D02*
X194000Y293500D01*
X193000Y295500D01*
X195000Y294500D01*
X197000Y295500D01*
X196000Y293500D01*
X197000Y291500D01*
X195000Y292500D01*
X193000Y291500D01*
X24700Y136300D02*
X25700Y138300D01*
X24700Y140300D01*
X26700Y139300D01*
X28700Y140300D01*
X27700Y138300D01*
X28700Y136300D01*
X26700Y137300D01*
X24700Y136300D01*
X42000Y140800D02*
X43000Y142800D01*
X42000Y144800D01*
X44000Y143800D01*
X46000Y144800D01*
X45000Y142800D01*
X46000Y140800D01*
X44000Y141800D01*
X42000Y140800D01*
X117094Y211099D02*
X118094Y213099D01*
X117094Y215099D01*
X119094Y214099D01*
X121094Y215099D01*
X120094Y213099D01*
X121094Y211099D01*
X119094Y212099D01*
X117094Y211099D01*
X47900Y113900D02*
X48900Y115900D01*
X47900Y117900D01*
X49900Y116900D01*
X51900Y117900D01*
X50900Y115900D01*
X51900Y113900D01*
X49900Y114900D01*
X47900Y113900D01*
X117094Y160835D02*
X118094Y162835D01*
X117094Y164835D01*
X119094Y163835D01*
X121094Y164835D01*
X120094Y162835D01*
X121094Y160835D01*
X119094Y161835D01*
X117094Y160835D01*
X83600Y137300D02*
X84600Y139300D01*
X83600Y141300D01*
X85600Y140300D01*
X87600Y141300D01*
X86600Y139300D01*
X87600Y137300D01*
X85600Y138300D01*
X83600Y137300D01*
X101700Y146700D02*
X102700Y148700D01*
X101700Y150700D01*
X103700Y149700D01*
X105700Y150700D01*
X104700Y148700D01*
X105700Y146700D01*
X103700Y147700D01*
X101700Y146700D01*
X196000Y139000D02*
X197000Y141000D01*
X196000Y143000D01*
X198000Y142000D01*
X200000Y143000D01*
X199000Y141000D01*
X200000Y139000D01*
X198000Y140000D01*
X196000Y139000D01*
X238000Y315000D02*
X239000Y317000D01*
X238000Y319000D01*
X240000Y318000D01*
X242000Y319000D01*
X241000Y317000D01*
X242000Y315000D01*
X240000Y316000D01*
X238000Y315000D01*
X98000Y292700D02*
X99000Y294700D01*
X98000Y296700D01*
X100000Y295700D01*
X102000Y296700D01*
X101000Y294700D01*
X102000Y292700D01*
X100000Y293700D01*
X98000Y292700D01*
X38000D02*
X39000Y294700D01*
X38000Y296700D01*
X40000Y295700D01*
X42000Y296700D01*
X41000Y294700D01*
X42000Y292700D01*
X40000Y293700D01*
X38000Y292700D01*
X83000Y292705D02*
X84000Y294705D01*
X83000Y296705D01*
X85000Y295705D01*
X87000Y296705D01*
X86000Y294705D01*
X87000Y292705D01*
X85000Y293705D01*
X83000Y292705D01*
X43031Y282500D02*
X44031Y284500D01*
X43031Y286500D01*
X45031Y285500D01*
X47031Y286500D01*
X46031Y284500D01*
X47031Y282500D01*
X45031Y283500D01*
X43031Y282500D01*
X44100Y173500D02*
X45100Y175500D01*
X44100Y177500D01*
X46100Y176500D01*
X48100Y177500D01*
X47100Y175500D01*
X48100Y173500D01*
X46100Y174500D01*
X44100Y173500D01*
X86900Y231708D02*
X87900Y233708D01*
X86900Y235708D01*
X88900Y234708D01*
X90900Y235708D01*
X89900Y233708D01*
X90900Y231708D01*
X88900Y232708D01*
X86900Y231708D01*
X125200Y253300D02*
X126200Y255300D01*
X125200Y257300D01*
X127200Y256300D01*
X129200Y257300D01*
X128200Y255300D01*
X129200Y253300D01*
X127200Y254300D01*
X125200Y253300D01*
X238000Y254906D02*
X239000Y256906D01*
X238000Y258906D01*
X240000Y257906D01*
X242000Y258906D01*
X241000Y256906D01*
X242000Y254906D01*
X240000Y255906D01*
X238000Y254906D01*
X61100Y260400D02*
X62100Y262400D01*
X61100Y264400D01*
X63100Y263400D01*
X65100Y264400D01*
X64100Y262400D01*
X65100Y260400D01*
X63100Y261400D01*
X61100Y260400D01*
X100900Y180400D02*
X101900Y182400D01*
X100900Y184400D01*
X102900Y183400D01*
X104900Y184400D01*
X103900Y182400D01*
X104900Y180400D01*
X102900Y181400D01*
X100900Y180400D01*
X145100Y209500D02*
X146100Y211500D01*
X145100Y213500D01*
X147100Y212500D01*
X149100Y213500D01*
X148100Y211500D01*
X149100Y209500D01*
X147100Y210500D01*
X145100Y209500D01*
X143100Y201200D02*
X144100Y203200D01*
X143100Y205200D01*
X145100Y204200D01*
X147100Y205200D01*
X146100Y203200D01*
X147100Y201200D01*
X145100Y202200D01*
X143100Y201200D01*
X159500Y199600D02*
X160500Y201600D01*
X159500Y203600D01*
X161500Y202600D01*
X163500Y203600D01*
X162500Y201600D01*
X163500Y199600D01*
X161500Y200600D01*
X159500Y199600D01*
X154969Y245763D02*
X155969Y247763D01*
X154969Y249763D01*
X156969Y248763D01*
X158969Y249763D01*
X157969Y247763D01*
X158969Y245763D01*
X156969Y246763D01*
X154969Y245763D01*
Y254300D02*
X155969Y256300D01*
X154969Y258300D01*
X156969Y257300D01*
X158969Y258300D01*
X157969Y256300D01*
X158969Y254300D01*
X156969Y255300D01*
X154969Y254300D01*
X98000Y260399D02*
X99000Y262399D01*
X98000Y264399D01*
X100000Y263399D01*
X102000Y264399D01*
X101000Y262399D01*
X102000Y260399D01*
X100000Y261399D01*
X98000Y260399D01*
X94100Y282200D02*
X95100Y284200D01*
X94100Y286200D01*
X96100Y285200D01*
X98100Y286200D01*
X97100Y284200D01*
X98100Y282200D01*
X96100Y283200D01*
X94100Y282200D01*
Y263637D02*
X95100Y265637D01*
X94100Y267637D01*
X96100Y266637D01*
X98100Y267637D01*
X97100Y265637D01*
X98100Y263637D01*
X96100Y264637D01*
X94100Y263637D01*
X263000Y275500D02*
X264000Y277500D01*
X263000Y279500D01*
X265000Y278500D01*
X267000Y279500D01*
X266000Y277500D01*
X267000Y275500D01*
X265000Y276500D01*
X263000Y275500D01*
X45400Y119500D02*
X46400Y121500D01*
X45400Y123500D01*
X47400Y122500D01*
X49400Y123500D01*
X48400Y121500D01*
X49400Y119500D01*
X47400Y120500D01*
X45400Y119500D01*
X53200Y152100D02*
X54200Y154100D01*
X53200Y156100D01*
X55200Y155100D01*
X57200Y156100D01*
X56200Y154100D01*
X57200Y152100D01*
X55200Y153100D01*
X53200Y152100D01*
X50731Y163400D02*
X51731Y165400D01*
X50731Y167400D01*
X52731Y166400D01*
X54731Y167400D01*
X53731Y165400D01*
X54731Y163400D01*
X52731Y164400D01*
X50731Y163400D01*
X55100Y74700D02*
X56100Y76700D01*
X55100Y78700D01*
X57100Y77700D01*
X59100Y78700D01*
X58100Y76700D01*
X59100Y74700D01*
X57100Y75700D01*
X55100Y74700D01*
X110500Y68500D02*
X111500Y70500D01*
X110500Y72500D01*
X112500Y71500D01*
X114500Y72500D01*
X113500Y70500D01*
X114500Y68500D01*
X112500Y69500D01*
X110500Y68500D01*
X120800Y231900D02*
X121800Y233900D01*
X120800Y235900D01*
X122800Y234900D01*
X124800Y235900D01*
X123800Y233900D01*
X124800Y231900D01*
X122800Y232900D01*
X120800Y231900D01*
X105126Y229800D02*
X106126Y231800D01*
X105126Y233800D01*
X107126Y232800D01*
X109126Y233800D01*
X108126Y231800D01*
X109126Y229800D01*
X107126Y230800D01*
X105126Y229800D01*
X129400Y185009D02*
X130400Y187009D01*
X129400Y189009D01*
X131400Y188009D01*
X133400Y189009D01*
X132400Y187009D01*
X133400Y185009D01*
X131400Y186009D01*
X129400Y185009D01*
X119100Y196000D02*
X120100Y198000D01*
X119100Y200000D01*
X121100Y199000D01*
X123100Y200000D01*
X122100Y198000D01*
X123100Y196000D01*
X121100Y197000D01*
X119100Y196000D01*
X277700Y32400D02*
X278700Y34400D01*
X277700Y36400D01*
X279700Y35400D01*
X281700Y36400D01*
X280700Y34400D01*
X281700Y32400D01*
X279700Y33400D01*
X277700Y32400D01*
X42600Y31400D02*
X43600Y33400D01*
X42600Y35400D01*
X44600Y34400D01*
X46600Y35400D01*
X45600Y33400D01*
X46600Y31400D01*
X44600Y32400D01*
X42600Y31400D01*
X151200Y170500D02*
X152200Y172500D01*
X151200Y174500D01*
X153200Y173500D01*
X155200Y174500D01*
X154200Y172500D01*
X155200Y170500D01*
X153200Y171500D01*
X151200Y170500D01*
X29200Y154600D02*
X30200Y156600D01*
X29200Y158600D01*
X31200Y157600D01*
X33200Y158600D01*
X32200Y156600D01*
X33200Y154600D01*
X31200Y155600D01*
X29200Y154600D01*
X49031Y153042D02*
X50031Y155042D01*
X49031Y157042D01*
X51031Y156042D01*
X53031Y157042D01*
X52031Y155042D01*
X53031Y153042D01*
X51031Y154042D01*
X49031Y153042D01*
X11000Y124800D02*
X12000Y126800D01*
X11000Y128800D01*
X13000Y127800D01*
X15000Y128800D01*
X14000Y126800D01*
X15000Y124800D01*
X13000Y125800D01*
X11000Y124800D01*
Y139900D02*
X12000Y141900D01*
X11000Y143900D01*
X13000Y142900D01*
X15000Y143900D01*
X14000Y141900D01*
X15000Y139900D01*
X13000Y140900D01*
X11000Y139900D01*
X50008Y208500D02*
X51008Y210500D01*
X50008Y212500D01*
X52008Y211500D01*
X54008Y212500D01*
X53008Y210500D01*
X54008Y208500D01*
X52008Y209500D01*
X50008Y208500D01*
X37359D02*
X38359Y210500D01*
X37359Y212500D01*
X39359Y211500D01*
X41359Y212500D01*
X40359Y210500D01*
X41359Y208500D01*
X39359Y209500D01*
X37359Y208500D01*
Y230500D02*
X38359Y232500D01*
X37359Y234500D01*
X39359Y233500D01*
X41359Y234500D01*
X40359Y232500D01*
X41359Y230500D01*
X39359Y231500D01*
X37359Y230500D01*
X202400Y167600D02*
X203400Y169600D01*
X202400Y171600D01*
X204400Y170600D01*
X206400Y171600D01*
X205400Y169600D01*
X206400Y167600D01*
X204400Y168600D01*
X202400Y167600D01*
D108*
X217000Y505000D02*
G03*
X217000Y505000I-2000J0D01*
G01*
X197000D02*
G03*
X197000Y505000I-2000J0D01*
G01*
X117000D02*
G03*
X117000Y505000I-2000J0D01*
G01*
X137000D02*
G03*
X137000Y505000I-2000J0D01*
G01*
X77000D02*
G03*
X77000Y505000I-2000J0D01*
G01*
X97000D02*
G03*
X97000Y505000I-2000J0D01*
G01*
X157000D02*
G03*
X157000Y505000I-2000J0D01*
G01*
X177000D02*
G03*
X177000Y505000I-2000J0D01*
G01*
X262000Y95000D02*
G03*
X262000Y95000I-2000J0D01*
G01*
Y75000D02*
G03*
X262000Y75000I-2000J0D01*
G01*
%TF.MD5,f4db0020c783abba760eed91ceb2ed5a*%
M02*
