%TF.GenerationSoftware,Altium Limited,Altium Designer,21.0.4 (50)*%
G04 Layer_Color=4408131*
%FSLAX25Y25*%
%MOIN*%
%TF.SameCoordinates,7C4F9ACF-F1D8-4562-922E-26F05696B097*%
%TF.FilePolarity,Negative*%
%TF.FileFunction,Soldermask,Top*%
%TF.Part,Single*%
G01*
G75*
%TA.AperFunction,SMDPad,CuDef*%
%ADD62R,0.04737X0.03950*%
%ADD66R,0.03950X0.04737*%
%ADD67R,0.06200X0.05300*%
%ADD73R,0.05300X0.06200*%
%TA.AperFunction,ComponentPad*%
%ADD75O,0.14580X0.07099*%
%ADD76O,0.12611X0.16548*%
%TA.AperFunction,WasherPad*%
%ADD77C,0.19685*%
%TA.AperFunction,ComponentPad*%
%ADD78O,0.07099X0.14580*%
%ADD79C,0.07887*%
%ADD80O,0.08674X0.10642*%
%ADD81O,0.16548X0.12611*%
%TA.AperFunction,SMDPad,CuDef*%
%ADD84R,0.06509X0.07296*%
%ADD85R,0.16548X0.12611*%
%ADD86R,0.03556X0.08674*%
%ADD87R,0.04540X0.03950*%
%ADD88R,0.01981X0.05918*%
%ADD89R,0.07296X0.06509*%
%ADD90R,0.03950X0.04540*%
%ADD91R,0.07887X0.09855*%
%ADD92R,0.05524X0.05524*%
%ADD93R,0.07099X0.07099*%
G36*
X20407Y222956D02*
X20458Y222946D01*
X20508Y222929D01*
X20555Y222906D01*
X20598Y222877D01*
X20638Y222843D01*
X20939Y222541D01*
X20938Y222559D01*
X20941Y222611D01*
X20951Y222663D01*
X20968Y222712D01*
X20991Y222760D01*
X21021Y222803D01*
X21055Y222843D01*
X21094Y222877D01*
X21138Y222906D01*
X21185Y222929D01*
X21235Y222946D01*
X21286Y222956D01*
X21339Y222960D01*
X26358D01*
X26411Y222956D01*
X26462Y222946D01*
X26512Y222929D01*
X26559Y222906D01*
X26602Y222877D01*
X26642Y222843D01*
X26676Y222803D01*
X26705Y222760D01*
X26729Y222712D01*
X26746Y222663D01*
X26756Y222611D01*
X26759Y222559D01*
Y217441D01*
X26756Y217389D01*
X26746Y217337D01*
X26729Y217287D01*
X26705Y217241D01*
X26676Y217197D01*
X26642Y217158D01*
X26602Y217123D01*
X26559Y217094D01*
X26512Y217071D01*
X26462Y217054D01*
X26411Y217043D01*
X26358Y217040D01*
X21339D01*
X21286Y217043D01*
X21235Y217054D01*
X21185Y217071D01*
X21138Y217094D01*
X21094Y217123D01*
X21055Y217158D01*
X21021Y217197D01*
X20991Y217241D01*
X20968Y217287D01*
X20951Y217337D01*
X20941Y217389D01*
X20938Y217441D01*
X20939Y217459D01*
X20638Y217158D01*
X20598Y217123D01*
X20555Y217094D01*
X20508Y217071D01*
X20458Y217054D01*
X20407Y217043D01*
X20354Y217040D01*
X17500D01*
X17500D01*
X17500D01*
X14646D01*
X14593Y217043D01*
X14542Y217054D01*
X14492Y217071D01*
X14445Y217094D01*
X14402Y217123D01*
X14362Y217158D01*
X14061Y217459D01*
X14062Y217441D01*
X14059Y217389D01*
X14049Y217337D01*
X14032Y217287D01*
X14009Y217241D01*
X13979Y217197D01*
X13945Y217158D01*
X13905Y217123D01*
X13862Y217094D01*
X13815Y217071D01*
X13765Y217054D01*
X13714Y217043D01*
X13661Y217040D01*
X8642D01*
X8589Y217043D01*
X8538Y217054D01*
X8488Y217071D01*
X8441Y217094D01*
X8398Y217123D01*
X8358Y217158D01*
X8324Y217197D01*
X8295Y217241D01*
X8271Y217287D01*
X8254Y217337D01*
X8244Y217389D01*
X8241Y217441D01*
Y222559D01*
X8244Y222611D01*
X8254Y222663D01*
X8271Y222712D01*
X8295Y222760D01*
X8324Y222803D01*
X8358Y222843D01*
X8398Y222877D01*
X8441Y222906D01*
X8488Y222929D01*
X8538Y222946D01*
X8589Y222956D01*
X8642Y222960D01*
X13661D01*
X13714Y222956D01*
X13765Y222946D01*
X13815Y222929D01*
X13862Y222906D01*
X13905Y222877D01*
X13945Y222843D01*
X13979Y222803D01*
X14009Y222760D01*
X14032Y222712D01*
X14049Y222663D01*
X14059Y222611D01*
X14062Y222559D01*
X14061Y222541D01*
X14362Y222843D01*
X14402Y222877D01*
X14445Y222906D01*
X14492Y222929D01*
X14542Y222946D01*
X14593Y222956D01*
X14646Y222960D01*
X17500D01*
X17500D01*
X17500D01*
X20354D01*
X20407Y222956D01*
D02*
G37*
G36*
X77907D02*
X77958Y222946D01*
X78008Y222929D01*
X78055Y222906D01*
X78098Y222877D01*
X78138Y222843D01*
X78439Y222541D01*
X78438Y222559D01*
X78441Y222611D01*
X78451Y222663D01*
X78468Y222712D01*
X78491Y222760D01*
X78521Y222803D01*
X78555Y222843D01*
X78594Y222877D01*
X78638Y222906D01*
X78685Y222929D01*
X78735Y222946D01*
X78786Y222956D01*
X78839Y222960D01*
X83858D01*
X83911Y222956D01*
X83962Y222946D01*
X84012Y222929D01*
X84059Y222906D01*
X84102Y222877D01*
X84142Y222843D01*
X84176Y222803D01*
X84205Y222760D01*
X84229Y222712D01*
X84246Y222663D01*
X84256Y222611D01*
X84259Y222559D01*
Y217441D01*
X84256Y217389D01*
X84246Y217337D01*
X84229Y217287D01*
X84205Y217241D01*
X84176Y217197D01*
X84142Y217158D01*
X84102Y217123D01*
X84059Y217094D01*
X84012Y217071D01*
X83962Y217054D01*
X83911Y217043D01*
X83858Y217040D01*
X78839D01*
X78786Y217043D01*
X78735Y217054D01*
X78685Y217071D01*
X78638Y217094D01*
X78594Y217123D01*
X78555Y217158D01*
X78521Y217197D01*
X78491Y217241D01*
X78468Y217287D01*
X78451Y217337D01*
X78441Y217389D01*
X78438Y217441D01*
X78439Y217459D01*
X78138Y217158D01*
X78098Y217123D01*
X78055Y217094D01*
X78008Y217071D01*
X77958Y217054D01*
X77907Y217043D01*
X77854Y217040D01*
X75000D01*
X75000D01*
X75000D01*
X72146D01*
X72093Y217043D01*
X72042Y217054D01*
X71992Y217071D01*
X71945Y217094D01*
X71902Y217123D01*
X71862Y217158D01*
X71561Y217459D01*
X71562Y217441D01*
X71559Y217389D01*
X71549Y217337D01*
X71532Y217287D01*
X71509Y217241D01*
X71479Y217197D01*
X71445Y217158D01*
X71406Y217123D01*
X71362Y217094D01*
X71315Y217071D01*
X71265Y217054D01*
X71214Y217043D01*
X71161Y217040D01*
X66142D01*
X66089Y217043D01*
X66038Y217054D01*
X65988Y217071D01*
X65941Y217094D01*
X65898Y217123D01*
X65858Y217158D01*
X65824Y217197D01*
X65795Y217241D01*
X65771Y217287D01*
X65754Y217337D01*
X65744Y217389D01*
X65741Y217441D01*
Y222559D01*
X65744Y222611D01*
X65754Y222663D01*
X65771Y222712D01*
X65795Y222760D01*
X65824Y222803D01*
X65858Y222843D01*
X65898Y222877D01*
X65941Y222906D01*
X65988Y222929D01*
X66038Y222946D01*
X66089Y222956D01*
X66142Y222960D01*
X71161D01*
X71214Y222956D01*
X71265Y222946D01*
X71315Y222929D01*
X71362Y222906D01*
X71406Y222877D01*
X71445Y222843D01*
X71479Y222803D01*
X71509Y222760D01*
X71532Y222712D01*
X71549Y222663D01*
X71559Y222611D01*
X71562Y222559D01*
X71561Y222541D01*
X71862Y222843D01*
X71902Y222877D01*
X71945Y222906D01*
X71992Y222929D01*
X72042Y222946D01*
X72093Y222956D01*
X72146Y222960D01*
X75000D01*
X75000D01*
X75000D01*
X77854D01*
X77907Y222956D01*
D02*
G37*
G36*
X166411Y222956D02*
X166462Y222946D01*
X166512Y222929D01*
X166559Y222906D01*
X166602Y222877D01*
X166642Y222843D01*
X166676Y222803D01*
X166705Y222760D01*
X166729Y222712D01*
X166745Y222663D01*
X166756Y222611D01*
X166759Y222559D01*
Y217441D01*
X166756Y217389D01*
X166745Y217337D01*
X166729Y217287D01*
X166705Y217241D01*
X166676Y217197D01*
X166642Y217158D01*
X166602Y217123D01*
X166559Y217094D01*
X166512Y217071D01*
X166462Y217054D01*
X166411Y217043D01*
X166358Y217040D01*
X161339D01*
X161286Y217043D01*
X161235Y217054D01*
X161185Y217071D01*
X161138Y217094D01*
X161094Y217123D01*
X161055Y217158D01*
X161021Y217197D01*
X160991Y217241D01*
X160968Y217287D01*
X160951Y217337D01*
X160941Y217389D01*
X160938Y217441D01*
X160939Y217459D01*
X160638Y217158D01*
X160598Y217123D01*
X160555Y217094D01*
X160508Y217071D01*
X160458Y217054D01*
X160407Y217043D01*
X160354Y217040D01*
X157500D01*
X157500D01*
X157500D01*
X154646D01*
X154593Y217043D01*
X154542Y217054D01*
X154492Y217071D01*
X154445Y217094D01*
X154402Y217123D01*
X154362Y217158D01*
X154061Y217459D01*
X154062Y217441D01*
X154059Y217389D01*
X154049Y217337D01*
X154032Y217287D01*
X154009Y217241D01*
X153979Y217197D01*
X153945Y217158D01*
X153905Y217123D01*
X153862Y217094D01*
X153815Y217071D01*
X153765Y217054D01*
X153714Y217043D01*
X153661Y217040D01*
X148642D01*
X148589Y217043D01*
X148538Y217054D01*
X148488Y217071D01*
X148441Y217094D01*
X148398Y217123D01*
X148358Y217158D01*
X148324Y217197D01*
X148295Y217241D01*
X148271Y217287D01*
X148255Y217337D01*
X148244Y217389D01*
X148241Y217441D01*
Y222559D01*
X148244Y222611D01*
X148255Y222663D01*
X148271Y222712D01*
X148295Y222760D01*
X148324Y222803D01*
X148358Y222843D01*
X148398Y222877D01*
X148441Y222906D01*
X148488Y222929D01*
X148538Y222946D01*
X148589Y222956D01*
X148642Y222960D01*
X153661D01*
X153714Y222956D01*
X153765Y222946D01*
X153815Y222929D01*
X153862Y222906D01*
X153905Y222877D01*
X153945Y222843D01*
X153979Y222803D01*
X154009Y222760D01*
X154032Y222712D01*
X154049Y222663D01*
X154059Y222611D01*
X154062Y222559D01*
X154061Y222541D01*
X154362Y222843D01*
X154402Y222877D01*
X154445Y222906D01*
X154492Y222929D01*
X154542Y222946D01*
X154593Y222956D01*
X154646Y222960D01*
X157500D01*
X157500D01*
X157500D01*
X160354D01*
X160407Y222956D01*
X160458Y222946D01*
X160508Y222929D01*
X160555Y222906D01*
X160598Y222877D01*
X160638Y222843D01*
X160939Y222541D01*
X160938Y222559D01*
X160941Y222611D01*
X160951Y222663D01*
X160968Y222712D01*
X160991Y222760D01*
X161021Y222803D01*
X161055Y222843D01*
X161094Y222877D01*
X161138Y222906D01*
X161185Y222929D01*
X161235Y222946D01*
X161286Y222956D01*
X161339Y222960D01*
X166358D01*
X166411Y222956D01*
D02*
G37*
G36*
X246411D02*
X246462Y222946D01*
X246512Y222929D01*
X246559Y222906D01*
X246602Y222877D01*
X246642Y222843D01*
X246676Y222803D01*
X246705Y222760D01*
X246729Y222712D01*
X246745Y222663D01*
X246756Y222611D01*
X246759Y222559D01*
Y217441D01*
X246756Y217389D01*
X246745Y217337D01*
X246729Y217287D01*
X246705Y217241D01*
X246676Y217197D01*
X246642Y217158D01*
X246602Y217123D01*
X246559Y217094D01*
X246512Y217071D01*
X246462Y217054D01*
X246411Y217043D01*
X246358Y217040D01*
X241339D01*
X241286Y217043D01*
X241235Y217054D01*
X241185Y217071D01*
X241138Y217094D01*
X241094Y217123D01*
X241055Y217158D01*
X241021Y217197D01*
X240991Y217241D01*
X240968Y217287D01*
X240951Y217337D01*
X240941Y217389D01*
X240938Y217441D01*
X240939Y217459D01*
X240638Y217158D01*
X240598Y217123D01*
X240555Y217094D01*
X240508Y217071D01*
X240458Y217054D01*
X240407Y217043D01*
X240354Y217040D01*
X237500D01*
X237500D01*
X237500D01*
X234646D01*
X234593Y217043D01*
X234542Y217054D01*
X234492Y217071D01*
X234445Y217094D01*
X234402Y217123D01*
X234362Y217158D01*
X234061Y217459D01*
X234062Y217441D01*
X234059Y217389D01*
X234049Y217337D01*
X234032Y217287D01*
X234009Y217241D01*
X233979Y217197D01*
X233945Y217158D01*
X233906Y217123D01*
X233862Y217094D01*
X233815Y217071D01*
X233765Y217054D01*
X233714Y217043D01*
X233661Y217040D01*
X228642D01*
X228589Y217043D01*
X228538Y217054D01*
X228488Y217071D01*
X228441Y217094D01*
X228398Y217123D01*
X228358Y217158D01*
X228324Y217197D01*
X228295Y217241D01*
X228271Y217287D01*
X228255Y217337D01*
X228244Y217389D01*
X228241Y217441D01*
Y222559D01*
X228244Y222611D01*
X228255Y222663D01*
X228271Y222712D01*
X228295Y222760D01*
X228324Y222803D01*
X228358Y222843D01*
X228398Y222877D01*
X228441Y222906D01*
X228488Y222929D01*
X228538Y222946D01*
X228589Y222956D01*
X228642Y222960D01*
X233661D01*
X233714Y222956D01*
X233765Y222946D01*
X233815Y222929D01*
X233862Y222906D01*
X233906Y222877D01*
X233945Y222843D01*
X233979Y222803D01*
X234009Y222760D01*
X234032Y222712D01*
X234049Y222663D01*
X234059Y222611D01*
X234062Y222559D01*
X234061Y222541D01*
X234362Y222843D01*
X234402Y222877D01*
X234445Y222906D01*
X234492Y222929D01*
X234542Y222946D01*
X234593Y222956D01*
X234646Y222960D01*
X237500D01*
X237500D01*
X237500D01*
X240354D01*
X240407Y222956D01*
X240458Y222946D01*
X240508Y222929D01*
X240555Y222906D01*
X240598Y222877D01*
X240638Y222843D01*
X240939Y222541D01*
X240938Y222559D01*
X240941Y222611D01*
X240951Y222663D01*
X240968Y222712D01*
X240991Y222760D01*
X241021Y222803D01*
X241055Y222843D01*
X241094Y222877D01*
X241138Y222906D01*
X241185Y222929D01*
X241235Y222946D01*
X241286Y222956D01*
X241339Y222960D01*
X246358D01*
X246411Y222956D01*
D02*
G37*
%LPC*%
G36*
X11687Y220018D02*
X11669Y220000D01*
X11687Y219982D01*
X11686Y220000D01*
X11687Y220018D01*
D02*
G37*
G36*
X23313Y220018D02*
X23314Y220000D01*
X23313Y219982D01*
X23331Y220000D01*
X23313Y220018D01*
D02*
G37*
G36*
X69187Y220018D02*
X69169Y220000D01*
X69187Y219982D01*
X69186Y220000D01*
X69187Y220018D01*
D02*
G37*
G36*
X80813Y220018D02*
X80814Y220000D01*
X80813Y219982D01*
X80831Y220000D01*
X80813Y220018D01*
D02*
G37*
G36*
X163313Y220018D02*
X163314Y220000D01*
X163313Y219982D01*
X163331Y220000D01*
X163313Y220018D01*
D02*
G37*
G36*
X151687Y220018D02*
X151669Y220000D01*
X151687Y219982D01*
X151686Y220000D01*
X151687Y220018D01*
D02*
G37*
G36*
X243313Y220018D02*
X243314Y220000D01*
X243313Y219982D01*
X243331Y220000D01*
X243313Y220018D01*
D02*
G37*
G36*
X231687Y220018D02*
X231669Y220000D01*
X231687Y219982D01*
X231686Y220000D01*
X231687Y220018D01*
D02*
G37*
%LPD*%
D62*
X97500Y194094D02*
D03*
Y187500D02*
D03*
X82500Y194094D02*
D03*
Y187500D02*
D03*
X230000Y163268D02*
D03*
Y156673D02*
D03*
X165000Y163268D02*
D03*
Y156673D02*
D03*
X250000Y243406D02*
D03*
X270000D02*
D03*
X260000D02*
D03*
X280000D02*
D03*
X100000D02*
D03*
X150000D02*
D03*
X110000D02*
D03*
X140000D02*
D03*
X130000D02*
D03*
X240000D02*
D03*
X230000D02*
D03*
X220000D02*
D03*
X210000D02*
D03*
X185000D02*
D03*
X175000D02*
D03*
X165000D02*
D03*
X90000D02*
D03*
X80000D02*
D03*
X70000D02*
D03*
X45000D02*
D03*
X25000D02*
D03*
X35000D02*
D03*
X15000D02*
D03*
X60000D02*
D03*
X127500Y119094D02*
D03*
X250000Y250000D02*
D03*
X270000D02*
D03*
X260000D02*
D03*
X280000D02*
D03*
X100000D02*
D03*
X150000D02*
D03*
X110000D02*
D03*
X140000D02*
D03*
X130000D02*
D03*
X240000D02*
D03*
X230000D02*
D03*
X220000D02*
D03*
X210000D02*
D03*
X185000D02*
D03*
X175000D02*
D03*
X165000D02*
D03*
X90000D02*
D03*
X80000D02*
D03*
X70000D02*
D03*
X45000D02*
D03*
X25000D02*
D03*
X35000D02*
D03*
X15000D02*
D03*
X60000D02*
D03*
X127500Y112500D02*
D03*
D66*
X97500Y135000D02*
D03*
X90906D02*
D03*
X60906Y175000D02*
D03*
X67500D02*
D03*
X112500Y182500D02*
D03*
X119094D02*
D03*
X112500Y142500D02*
D03*
X119094D02*
D03*
X67500Y202500D02*
D03*
X60906D02*
D03*
X67500Y190000D02*
D03*
X60906D02*
D03*
X192500Y210000D02*
D03*
X199094D02*
D03*
X257500D02*
D03*
X264094D02*
D03*
X70000Y135000D02*
D03*
X76594D02*
D03*
X201594Y130000D02*
D03*
X195000D02*
D03*
X251594D02*
D03*
X245000D02*
D03*
X200000Y325000D02*
D03*
X193406D02*
D03*
X170000D02*
D03*
X176594D02*
D03*
X101594D02*
D03*
X95000D02*
D03*
X208406Y375000D02*
D03*
X215000D02*
D03*
X208406Y385000D02*
D03*
X215000D02*
D03*
X208406Y335000D02*
D03*
X215000D02*
D03*
X208406Y345000D02*
D03*
X215000D02*
D03*
X208406Y355000D02*
D03*
X215000D02*
D03*
X208406Y415000D02*
D03*
X215000D02*
D03*
X208406Y435000D02*
D03*
X215000D02*
D03*
X208406Y445000D02*
D03*
X215000D02*
D03*
X208406Y405000D02*
D03*
X215000D02*
D03*
X208406Y395000D02*
D03*
X215000D02*
D03*
X75000Y435000D02*
D03*
X81594D02*
D03*
X75000Y445000D02*
D03*
X81594D02*
D03*
Y345000D02*
D03*
X75000D02*
D03*
X81594Y365000D02*
D03*
X75000D02*
D03*
X81594Y335000D02*
D03*
X75000D02*
D03*
Y425000D02*
D03*
X81594D02*
D03*
X75000Y405000D02*
D03*
X81594D02*
D03*
Y375000D02*
D03*
X75000D02*
D03*
X81594Y385000D02*
D03*
X75000D02*
D03*
Y395000D02*
D03*
X81594D02*
D03*
X120000Y325000D02*
D03*
X113406D02*
D03*
D67*
X260000Y163268D02*
D03*
Y154768D02*
D03*
X250000Y163268D02*
D03*
Y154768D02*
D03*
X195000Y163268D02*
D03*
Y154768D02*
D03*
X185000Y163268D02*
D03*
Y154768D02*
D03*
X35000Y68500D02*
D03*
Y60000D02*
D03*
X65000Y68500D02*
D03*
Y60000D02*
D03*
X55000Y68500D02*
D03*
Y60000D02*
D03*
X45000Y68500D02*
D03*
Y60000D02*
D03*
X195000Y243406D02*
D03*
X120000Y244000D02*
D03*
X260000Y260000D02*
D03*
X120000Y264000D02*
D03*
X260000Y268500D02*
D03*
X195000Y251906D02*
D03*
X120000Y252500D02*
D03*
Y272500D02*
D03*
D73*
X67500Y162500D02*
D03*
X59000D02*
D03*
X67500Y150000D02*
D03*
X59000D02*
D03*
X206500Y365000D02*
D03*
X215000D02*
D03*
X206500Y425000D02*
D03*
X215000D02*
D03*
X75000Y355000D02*
D03*
X83500D02*
D03*
Y415000D02*
D03*
X75000D02*
D03*
D75*
X222500Y104843D02*
D03*
Y95000D02*
D03*
X16732Y147973D02*
D03*
X16732Y157815D02*
D03*
Y177500D02*
D03*
Y167657D02*
D03*
X250000Y355157D02*
D03*
Y365000D02*
D03*
Y345315D02*
D03*
Y335472D02*
D03*
Y405157D02*
D03*
Y415000D02*
D03*
Y395315D02*
D03*
Y385472D02*
D03*
X40000Y365000D02*
D03*
Y355157D02*
D03*
Y335472D02*
D03*
Y345315D02*
D03*
Y415000D02*
D03*
Y405157D02*
D03*
Y385472D02*
D03*
Y395315D02*
D03*
Y515000D02*
D03*
Y505157D02*
D03*
Y485472D02*
D03*
Y495315D02*
D03*
Y465000D02*
D03*
Y455157D02*
D03*
Y435472D02*
D03*
Y445315D02*
D03*
X250000Y455157D02*
D03*
Y465000D02*
D03*
Y445315D02*
D03*
Y435472D02*
D03*
Y505157D02*
D03*
Y515000D02*
D03*
Y495315D02*
D03*
Y485472D02*
D03*
D76*
X215000Y505000D02*
D03*
X195000D02*
D03*
X115000D02*
D03*
X135000D02*
D03*
X75000D02*
D03*
X95000D02*
D03*
X155000D02*
D03*
X175000D02*
D03*
D77*
X226378Y70866D02*
D03*
X15748D02*
D03*
X216535Y470472D02*
D03*
X76772D02*
D03*
D78*
X45000Y85000D02*
D03*
X54843D02*
D03*
X220000Y20000D02*
D03*
X120000Y45000D02*
D03*
Y20000D02*
D03*
X170000D02*
D03*
X99527Y45000D02*
D03*
X70000Y20000D02*
D03*
X29842Y20000D02*
D03*
X39685D02*
D03*
X49527D02*
D03*
X20000Y20000D02*
D03*
X79842Y45000D02*
D03*
X89685D02*
D03*
X70000Y45000D02*
D03*
X229843Y20000D02*
D03*
X239685D02*
D03*
X220000Y45000D02*
D03*
X229843D02*
D03*
X239685D02*
D03*
X269843D02*
D03*
X260000D02*
D03*
X269843Y20000D02*
D03*
X260000D02*
D03*
X149527Y45000D02*
D03*
X139685D02*
D03*
X129842D02*
D03*
X149527Y20000D02*
D03*
X139685D02*
D03*
X129842D02*
D03*
X199527D02*
D03*
X189685D02*
D03*
X179842D02*
D03*
X20000Y45000D02*
D03*
X49527Y45000D02*
D03*
X39685D02*
D03*
X29842D02*
D03*
X170000Y45000D02*
D03*
X199527Y45000D02*
D03*
X189685D02*
D03*
X179842D02*
D03*
X99527Y20000D02*
D03*
X89685D02*
D03*
X79842D02*
D03*
D79*
X125000Y62500D02*
D03*
X105000D02*
D03*
X115000D02*
D03*
X95000D02*
D03*
X85000D02*
D03*
D80*
X10000Y94665D02*
D03*
Y116713D02*
D03*
X25748D02*
D03*
Y94665D02*
D03*
D81*
X260000Y95000D02*
D03*
Y75000D02*
D03*
D84*
X124232Y170000D02*
D03*
X107500D02*
D03*
X124232Y155000D02*
D03*
X107500D02*
D03*
X99232Y115000D02*
D03*
X82500D02*
D03*
X99232Y102500D02*
D03*
X82500D02*
D03*
X99232Y90000D02*
D03*
X82500D02*
D03*
X99232Y77500D02*
D03*
X82500D02*
D03*
D85*
X127500Y97500D02*
D03*
X196004D02*
D03*
D86*
X92500Y151270D02*
D03*
X97500D02*
D03*
X87500D02*
D03*
X82500D02*
D03*
X92500Y172530D02*
D03*
X82500D02*
D03*
X87500D02*
D03*
X97500D02*
D03*
X190000Y177008D02*
D03*
X195000D02*
D03*
X185000D02*
D03*
X180000D02*
D03*
X190000Y198268D02*
D03*
X180000D02*
D03*
X185000D02*
D03*
X195000D02*
D03*
X255000Y177038D02*
D03*
X260000D02*
D03*
X250000D02*
D03*
X245000D02*
D03*
X255000Y198298D02*
D03*
X245000D02*
D03*
X250000D02*
D03*
X260000D02*
D03*
X280000Y305000D02*
D03*
X275000D02*
D03*
X270000D02*
D03*
X265000D02*
D03*
X280000Y283740D02*
D03*
X275000D02*
D03*
X270000D02*
D03*
X265000D02*
D03*
X240000D02*
D03*
X245000D02*
D03*
X250000D02*
D03*
X255000D02*
D03*
X240000Y305000D02*
D03*
X245000D02*
D03*
X250000D02*
D03*
X255000D02*
D03*
X195000Y267598D02*
D03*
X200000D02*
D03*
X205000D02*
D03*
X210000D02*
D03*
X215000D02*
D03*
X220000D02*
D03*
X225000D02*
D03*
X230000D02*
D03*
X195000Y305000D02*
D03*
X200000D02*
D03*
X205000D02*
D03*
X210000D02*
D03*
X215000D02*
D03*
X220000D02*
D03*
X225000D02*
D03*
X230000D02*
D03*
X150000Y267598D02*
D03*
X155000D02*
D03*
X160000D02*
D03*
X165000D02*
D03*
X170000D02*
D03*
X175000D02*
D03*
X180000D02*
D03*
X185000D02*
D03*
X150000Y305000D02*
D03*
X155000D02*
D03*
X160000D02*
D03*
X165000D02*
D03*
X170000D02*
D03*
X175000D02*
D03*
X180000D02*
D03*
X185000D02*
D03*
X140000D02*
D03*
X135000D02*
D03*
X130000D02*
D03*
X125000D02*
D03*
X140000Y283740D02*
D03*
X135000D02*
D03*
X130000D02*
D03*
X125000D02*
D03*
X115000Y305000D02*
D03*
X110000D02*
D03*
X105000D02*
D03*
X100000D02*
D03*
X115000Y283740D02*
D03*
X110000D02*
D03*
X105000D02*
D03*
X100000D02*
D03*
X55000Y267598D02*
D03*
X60000D02*
D03*
X65000D02*
D03*
X70000D02*
D03*
X75000D02*
D03*
X80000D02*
D03*
X85000D02*
D03*
X90000D02*
D03*
X55000Y305000D02*
D03*
X60000D02*
D03*
X65000D02*
D03*
X70000D02*
D03*
X75000D02*
D03*
X80000D02*
D03*
X85000D02*
D03*
X90000D02*
D03*
X10000Y267598D02*
D03*
X15000D02*
D03*
X20000D02*
D03*
X25000D02*
D03*
X30000D02*
D03*
X35000D02*
D03*
X40000D02*
D03*
X45000D02*
D03*
X10000Y305000D02*
D03*
X15000D02*
D03*
X20000D02*
D03*
X25000D02*
D03*
X30000D02*
D03*
X35000D02*
D03*
X40000D02*
D03*
X45000D02*
D03*
D87*
X224449Y126063D02*
D03*
X215000Y130000D02*
D03*
Y122126D02*
D03*
X274449Y126063D02*
D03*
X265000Y130000D02*
D03*
Y122126D02*
D03*
D88*
X246850Y220000D02*
D03*
X237500D02*
D03*
X228150D02*
D03*
X166850D02*
D03*
X157500D02*
D03*
X148150D02*
D03*
X65650D02*
D03*
X75000D02*
D03*
X84350D02*
D03*
X8150D02*
D03*
X17500D02*
D03*
X26850D02*
D03*
D89*
X230000Y195000D02*
D03*
Y178268D02*
D03*
X275000Y195000D02*
D03*
Y178268D02*
D03*
X165000Y195000D02*
D03*
Y178268D02*
D03*
X210000Y195000D02*
D03*
Y178268D02*
D03*
D90*
X186063Y425551D02*
D03*
X193937D02*
D03*
X190000Y435000D02*
D03*
Y350000D02*
D03*
X193937Y340551D02*
D03*
X186063D02*
D03*
X100000Y350000D02*
D03*
X103937Y340551D02*
D03*
X96063D02*
D03*
X100000Y435000D02*
D03*
X103937Y425551D02*
D03*
X96063D02*
D03*
D91*
X170000Y435000D02*
D03*
X160157D02*
D03*
X170000Y399567D02*
D03*
X160157D02*
D03*
X129843Y435000D02*
D03*
X120000D02*
D03*
X129843Y399567D02*
D03*
X120000D02*
D03*
X160157Y339567D02*
D03*
X170000D02*
D03*
X160157Y375000D02*
D03*
X170000D02*
D03*
X120000Y339567D02*
D03*
X129843D02*
D03*
X120000Y375000D02*
D03*
X129843D02*
D03*
D92*
X185669Y396220D02*
D03*
X194331D02*
D03*
X185669Y366220D02*
D03*
X194331D02*
D03*
X104331D02*
D03*
X95669D02*
D03*
X104331Y396220D02*
D03*
X95669D02*
D03*
D93*
X190000Y410000D02*
D03*
Y380000D02*
D03*
X100000D02*
D03*
Y410000D02*
D03*
%TF.MD5,2affb56a7545dd5d5e388398955911e4*%
M02*
