%TF.GenerationSoftware,Altium Limited,Altium Designer,21.0.4 (50)*%
G04 Layer_Color=0*
%FSLAX25Y25*%
%MOIN*%
%TF.SameCoordinates,7C4F9ACF-F1D8-4562-922E-26F05696B097*%
%TF.FilePolarity,Positive*%
%TF.FileFunction,Plated,1,2,PTH,Drill*%
%TF.Part,Single*%
G01*
G75*
%TA.AperFunction,ComponentDrill*%
%ADD99C,0.03937*%
%ADD100C,0.05906*%
%ADD101C,0.03937*%
%ADD102C,0.04724*%
%ADD103C,0.05906*%
%TA.AperFunction,ViaDrill,NotFilled*%
%ADD104C,0.01181*%
%ADD105C,0.01968*%
D99*
X222500Y104843D02*
D03*
Y95000D02*
D03*
X16732Y147973D02*
D03*
X16732Y157815D02*
D03*
Y177500D02*
D03*
Y167657D02*
D03*
X250000Y355157D02*
D03*
Y365000D02*
D03*
Y345315D02*
D03*
Y335472D02*
D03*
Y405157D02*
D03*
Y415000D02*
D03*
Y395315D02*
D03*
Y385472D02*
D03*
X40000Y365000D02*
D03*
Y355157D02*
D03*
Y335472D02*
D03*
Y345315D02*
D03*
Y415000D02*
D03*
Y405157D02*
D03*
Y385472D02*
D03*
Y395315D02*
D03*
Y515000D02*
D03*
Y505157D02*
D03*
Y485472D02*
D03*
Y495315D02*
D03*
Y465000D02*
D03*
Y455157D02*
D03*
Y435472D02*
D03*
Y445315D02*
D03*
X250000Y455157D02*
D03*
Y465000D02*
D03*
Y445315D02*
D03*
Y435472D02*
D03*
Y505157D02*
D03*
Y515000D02*
D03*
Y495315D02*
D03*
Y485472D02*
D03*
D100*
X215000Y505000D02*
D03*
X195000D02*
D03*
X115000D02*
D03*
X135000D02*
D03*
X75000D02*
D03*
X95000D02*
D03*
X155000D02*
D03*
X175000D02*
D03*
D101*
X45000Y85000D02*
D03*
X54843D02*
D03*
X125000Y62500D02*
D03*
X105000D02*
D03*
X115000D02*
D03*
X95000D02*
D03*
X85000D02*
D03*
X220000Y20000D02*
D03*
X120000Y45000D02*
D03*
Y20000D02*
D03*
X170000D02*
D03*
X99527Y45000D02*
D03*
X70000Y20000D02*
D03*
X29842Y20000D02*
D03*
X39685D02*
D03*
X49527D02*
D03*
X20000Y20000D02*
D03*
X79842Y45000D02*
D03*
X89685D02*
D03*
X70000Y45000D02*
D03*
X229843Y20000D02*
D03*
X239685D02*
D03*
X220000Y45000D02*
D03*
X229843D02*
D03*
X239685D02*
D03*
X269843D02*
D03*
X260000D02*
D03*
X269843Y20000D02*
D03*
X260000D02*
D03*
X149527Y45000D02*
D03*
X139685D02*
D03*
X129842D02*
D03*
X149527Y20000D02*
D03*
X139685D02*
D03*
X129842D02*
D03*
X199527D02*
D03*
X189685D02*
D03*
X179842D02*
D03*
X20000Y45000D02*
D03*
X49527Y45000D02*
D03*
X39685D02*
D03*
X29842D02*
D03*
X170000Y45000D02*
D03*
X199527Y45000D02*
D03*
X189685D02*
D03*
X179842D02*
D03*
X99527Y20000D02*
D03*
X89685D02*
D03*
X79842D02*
D03*
D102*
X10000Y93878D02*
D03*
Y117500D02*
D03*
X25748D02*
D03*
Y93878D02*
D03*
D103*
X260000Y95000D02*
D03*
Y75000D02*
D03*
D104*
X107500Y160500D02*
D03*
X131200Y154592D02*
D03*
X133562Y157182D02*
D03*
X113800Y50300D02*
D03*
X75800Y108400D02*
D03*
X158700Y143200D02*
D03*
X56500Y55700D02*
D03*
X90000Y55500D02*
D03*
X22000Y34200D02*
D03*
X79300Y60000D02*
D03*
X59500Y60700D02*
D03*
X96900Y231200D02*
D03*
X274449Y26594D02*
D03*
X99800Y210200D02*
D03*
X245600Y126063D02*
D03*
X101300Y160500D02*
D03*
X95315Y221332D02*
D03*
X173600Y321200D02*
D03*
X60700Y46600D02*
D03*
X50762Y194762D02*
D03*
X71969Y95000D02*
D03*
X162000Y71600D02*
D03*
X159600Y20400D02*
D03*
X158800Y118200D02*
D03*
X203300Y133800D02*
D03*
X139685Y142300D02*
D03*
X173100Y135200D02*
D03*
X38400Y247000D02*
D03*
X145800Y250581D02*
D03*
X245800Y250000D02*
D03*
X119606Y388800D02*
D03*
X176800Y436700D02*
D03*
X60906Y178900D02*
D03*
X87500D02*
D03*
X118300Y256100D02*
D03*
X113500Y255500D02*
D03*
Y268000D02*
D03*
X144800D02*
D03*
X145600Y275600D02*
D03*
X158300Y283300D02*
D03*
X155500Y320100D02*
D03*
X149800Y373400D02*
D03*
X135200D02*
D03*
X190500Y269300D02*
D03*
X165200Y387800D02*
D03*
X176000Y396200D02*
D03*
X106300Y246600D02*
D03*
Y274250D02*
D03*
X157700Y274121D02*
D03*
X153800Y258662D02*
D03*
X160669Y275269D02*
D03*
X124300Y324100D02*
D03*
X21100Y286300D02*
D03*
X120000Y392200D02*
D03*
X129843Y422700D02*
D03*
X160157Y326000D02*
D03*
X260000Y264300D02*
D03*
X170000Y332000D02*
D03*
X28900Y196600D02*
D03*
X118700Y407700D02*
D03*
X133400Y293600D02*
D03*
X136728Y299200D02*
D03*
X120000Y332000D02*
D03*
X139800Y252900D02*
D03*
X169300Y235000D02*
D03*
X91200Y321700D02*
D03*
X89800Y366220D02*
D03*
X131299Y190394D02*
D03*
X93700Y247681D02*
D03*
X111601Y192333D02*
D03*
X85000Y251000D02*
D03*
X90000Y318400D02*
D03*
X205000Y288569D02*
D03*
X207400Y292100D02*
D03*
X150900Y210474D02*
D03*
X220800Y231500D02*
D03*
X225000Y249700D02*
D03*
X93200Y297100D02*
D03*
X111200Y253400D02*
D03*
X112600Y338600D02*
D03*
X275000Y291900D02*
D03*
X200000Y319700D02*
D03*
X280000Y290200D02*
D03*
X49800Y259900D02*
D03*
X30700Y480500D02*
D03*
X280000Y298300D02*
D03*
Y294300D02*
D03*
X20000Y495000D02*
D03*
X88000Y375500D02*
D03*
X28000Y85680D02*
D03*
X33662Y197500D02*
D03*
Y201000D02*
D03*
X72900Y210200D02*
D03*
X56000Y209000D02*
D03*
X73500Y236574D02*
D03*
X82500Y135000D02*
D03*
X102500Y133938D02*
D03*
X82500Y122500D02*
D03*
X119862Y194762D02*
D03*
X162300Y228500D02*
D03*
X245669Y230315D02*
D03*
X79900Y138706D02*
D03*
X77800Y116000D02*
D03*
X26400Y199400D02*
D03*
X21200Y296000D02*
D03*
X137200Y181300D02*
D03*
X54400Y185100D02*
D03*
X33800Y225000D02*
D03*
X40000Y252000D02*
D03*
X164900Y259300D02*
D03*
X111457Y221563D02*
D03*
X124000Y219594D02*
D03*
X131338Y223137D02*
D03*
X38138Y227301D02*
D03*
X91100Y114100D02*
D03*
X50500Y139000D02*
D03*
X34000Y138169D02*
D03*
X112500Y43362D02*
D03*
X166000Y32038D02*
D03*
X50000Y147500D02*
D03*
X46975Y163983D02*
D03*
X32809Y163460D02*
D03*
X26200Y150300D02*
D03*
X256500Y147000D02*
D03*
X94138Y120500D02*
D03*
X154000Y6000D02*
D03*
X158938Y389500D02*
D03*
X120000Y202000D02*
D03*
X72500Y199500D02*
D03*
X154000Y89000D02*
D03*
X150925Y85075D02*
D03*
X255900Y256645D02*
D03*
X27500Y296000D02*
D03*
X158575Y297075D02*
D03*
X237796Y310800D02*
D03*
X46500Y169000D02*
D03*
X134900Y165800D02*
D03*
X20600Y235100D02*
D03*
X21000Y185762D02*
D03*
X84151Y239849D02*
D03*
X139862Y212349D02*
D03*
X124000Y212835D02*
D03*
X75928Y234212D02*
D03*
X133288Y170728D02*
D03*
X45962Y130400D02*
D03*
X147165Y57962D02*
D03*
X52420Y93920D02*
D03*
X54427Y133487D02*
D03*
X75548Y172048D02*
D03*
X120817Y137803D02*
D03*
X26000Y28638D02*
D03*
X270000Y218638D02*
D03*
X163000Y213500D02*
D03*
X50000Y227500D02*
D03*
X45000Y161500D02*
D03*
X224000Y32000D02*
D03*
X155000Y127000D02*
D03*
X55100Y122861D02*
D03*
X247638Y169500D02*
D03*
X172500Y197000D02*
D03*
X144500Y189000D02*
D03*
X195000Y206000D02*
D03*
X215000Y316000D02*
D03*
X24000Y206500D02*
D03*
X26000Y225500D02*
D03*
X11500Y225000D02*
D03*
Y208500D02*
D03*
X46138Y155500D02*
D03*
X33500Y121500D02*
D03*
X53976Y235200D02*
D03*
X101500Y239800D02*
D03*
X106000D02*
D03*
X78000Y240000D02*
D03*
X75500Y121500D02*
D03*
X118862Y172000D02*
D03*
X165000Y227500D02*
D03*
X167000Y225000D02*
D03*
X165500Y209500D02*
D03*
X170500Y222500D02*
D03*
X168000Y206500D02*
D03*
X282500Y220500D02*
D03*
X254500Y223500D02*
D03*
Y217500D02*
D03*
X127500Y109600D02*
D03*
X55000Y287100D02*
D03*
X125900Y293600D02*
D03*
X110000Y294400D02*
D03*
X195000Y293500D02*
D03*
X26700Y138300D02*
D03*
X44000Y142800D02*
D03*
X119094Y213099D02*
D03*
X49900Y115900D02*
D03*
X119094Y162835D02*
D03*
X85600Y139300D02*
D03*
X103700Y148700D02*
D03*
X198000Y141000D02*
D03*
X240000Y317000D02*
D03*
X100000Y294700D02*
D03*
X40000D02*
D03*
X85000Y294705D02*
D03*
X45031Y284500D02*
D03*
X46100Y175500D02*
D03*
X88900Y233708D02*
D03*
X127200Y255300D02*
D03*
X240000Y256906D02*
D03*
X63100Y262400D02*
D03*
X102900Y182400D02*
D03*
X147100Y211500D02*
D03*
X145100Y203200D02*
D03*
X161500Y201600D02*
D03*
X156969Y247763D02*
D03*
Y256300D02*
D03*
X100000Y262399D02*
D03*
X96100Y284200D02*
D03*
Y265637D02*
D03*
X265000Y277500D02*
D03*
X47400Y121500D02*
D03*
X55200Y154100D02*
D03*
X52731Y165400D02*
D03*
X57100Y76700D02*
D03*
X112500Y70500D02*
D03*
X122800Y233900D02*
D03*
X107126Y231800D02*
D03*
X131400Y187009D02*
D03*
X121100Y198000D02*
D03*
X279700Y34400D02*
D03*
X44600Y33400D02*
D03*
X153200Y172500D02*
D03*
X31200Y156600D02*
D03*
X51031Y155042D02*
D03*
X13000Y126800D02*
D03*
Y141900D02*
D03*
X52008Y210500D02*
D03*
X39359D02*
D03*
Y232500D02*
D03*
X204400Y169600D02*
D03*
D105*
X242000Y268500D02*
D03*
X224000Y278000D02*
D03*
X146000Y383500D02*
D03*
X176500Y317500D02*
D03*
X201500Y379500D02*
D03*
X196000Y418000D02*
D03*
X201500Y441500D02*
D03*
X171500Y413500D02*
D03*
X57500Y314000D02*
D03*
X145000Y430000D02*
D03*
X107500Y440000D02*
D03*
X53500Y342000D02*
D03*
X123500Y351000D02*
D03*
X222500Y327000D02*
D03*
X34000Y236000D02*
D03*
X7000Y232000D02*
D03*
X20500Y191500D02*
D03*
X253500Y262000D02*
D03*
X114500Y242000D02*
D03*
X144500Y222500D02*
D03*
X64500Y237500D02*
D03*
X12500Y107500D02*
D03*
X76500Y69000D02*
D03*
X85000Y207500D02*
D03*
X77000Y151000D02*
D03*
X31000Y150891D02*
D03*
X50500Y110500D02*
D03*
X65500Y113500D02*
D03*
X91000Y140154D02*
D03*
X236000Y201500D02*
D03*
X211000Y206500D02*
D03*
X255000Y190500D02*
D03*
X209000Y154500D02*
D03*
Y138000D02*
D03*
X275000Y203500D02*
D03*
X142500Y156500D02*
D03*
X143500Y169153D02*
D03*
X127500Y125500D02*
D03*
X168000Y201500D02*
D03*
X152000Y194046D02*
D03*
X201000Y203000D02*
D03*
%TF.MD5,11b456aa5e0a123b0ab965cd1c20b1ec*%
M02*
